<mxfile host="app.diagrams.net" modified="2022-04-20T18:18:20.045Z" agent="5.0 (X11)" etag="Enepewlx20CCKQK0Tu7X" version="17.4.5" type="github">
  <diagram id="H0bEh5gtoYqn4u-LueMm" name="Page-1">
    <mxGraphModel dx="1923" dy="1290" grid="1" gridSize="10" guides="1" tooltips="1" connect="1" arrows="1" fold="1" page="1" pageScale="1" pageWidth="1654" pageHeight="2336" math="0" shadow="0">
      <root>
        <mxCell id="0" />
        <mxCell id="1" parent="0" />
        <mxCell id="zMXqPVA5cicqRbTmdhPu-194" value="&lt;span style=&quot;font-size: 14px&quot;&gt;&lt;b&gt;cache&lt;br&gt;0&lt;br&gt;&lt;br&gt;256 lines&lt;br&gt;by 4 words&lt;br&gt;&lt;/b&gt;&lt;/span&gt;" style="rounded=0;whiteSpace=wrap;html=1;fontColor=#000000;fillColor=none;" parent="1" vertex="1">
          <mxGeometry x="1671.29" y="170" width="254" height="440" as="geometry" />
        </mxCell>
        <mxCell id="zMXqPVA5cicqRbTmdhPu-197" value="enable" style="text;html=1;align=center;verticalAlign=middle;resizable=0;points=[];autosize=1;strokeColor=none;fillColor=none;fontColor=#000000;" parent="1" vertex="1">
          <mxGeometry x="1672.29" y="205" width="50" height="20" as="geometry" />
        </mxCell>
        <mxCell id="zMXqPVA5cicqRbTmdhPu-198" value="offset[2:0]" style="text;html=1;align=center;verticalAlign=middle;resizable=0;points=[];autosize=1;strokeColor=none;fillColor=none;fontColor=#000000;" parent="1" vertex="1">
          <mxGeometry x="1671.29" y="285" width="70" height="20" as="geometry" />
        </mxCell>
        <mxCell id="zMXqPVA5cicqRbTmdhPu-199" value="hit" style="text;html=1;align=center;verticalAlign=middle;resizable=0;points=[];autosize=1;strokeColor=none;fillColor=none;fontColor=#000000;" parent="1" vertex="1">
          <mxGeometry x="1886.29" y="275" width="30" height="20" as="geometry" />
        </mxCell>
        <mxCell id="zMXqPVA5cicqRbTmdhPu-200" value="dirty" style="text;html=1;align=center;verticalAlign=middle;resizable=0;points=[];autosize=1;strokeColor=none;fillColor=none;fontColor=#000000;" parent="1" vertex="1">
          <mxGeometry x="1881.29" y="305" width="40" height="20" as="geometry" />
        </mxCell>
        <mxCell id="zMXqPVA5cicqRbTmdhPu-201" value="tag_out[4:0]" style="text;html=1;align=center;verticalAlign=middle;resizable=0;points=[];autosize=1;strokeColor=none;fillColor=none;fontColor=#000000;" parent="1" vertex="1">
          <mxGeometry x="1846.29" y="335" width="80" height="20" as="geometry" />
        </mxCell>
        <mxCell id="zMXqPVA5cicqRbTmdhPu-202" value="data_out[13:0]" style="text;html=1;align=center;verticalAlign=middle;resizable=0;points=[];autosize=1;strokeColor=none;fillColor=none;fontColor=#000000;" parent="1" vertex="1">
          <mxGeometry x="1836.29" y="365" width="90" height="20" as="geometry" />
        </mxCell>
        <mxCell id="zMXqPVA5cicqRbTmdhPu-203" value="comp" style="text;html=1;align=center;verticalAlign=middle;resizable=0;points=[];autosize=1;strokeColor=none;fillColor=none;fontColor=#000000;" parent="1" vertex="1">
          <mxGeometry x="1671.29" y="325" width="50" height="20" as="geometry" />
        </mxCell>
        <mxCell id="zMXqPVA5cicqRbTmdhPu-204" value="index[7:0]" style="text;html=1;align=center;verticalAlign=middle;resizable=0;points=[];autosize=1;strokeColor=none;fillColor=none;fontColor=#000000;" parent="1" vertex="1">
          <mxGeometry x="1671.29" y="265" width="70" height="20" as="geometry" />
        </mxCell>
        <mxCell id="zMXqPVA5cicqRbTmdhPu-205" value="write" style="text;html=1;align=center;verticalAlign=middle;resizable=0;points=[];autosize=1;strokeColor=none;fillColor=none;fontColor=#000000;" parent="1" vertex="1">
          <mxGeometry x="1676.29" y="355" width="40" height="20" as="geometry" />
        </mxCell>
        <mxCell id="zMXqPVA5cicqRbTmdhPu-206" value="valid_in" style="text;html=1;align=center;verticalAlign=middle;resizable=0;points=[];autosize=1;strokeColor=none;fillColor=none;fontColor=#000000;" parent="1" vertex="1">
          <mxGeometry x="1672.29" y="415" width="60" height="20" as="geometry" />
        </mxCell>
        <mxCell id="zMXqPVA5cicqRbTmdhPu-207" value="data_in[15:0]" style="text;html=1;align=center;verticalAlign=middle;resizable=0;points=[];autosize=1;strokeColor=none;fillColor=none;fontColor=#000000;" parent="1" vertex="1">
          <mxGeometry x="1671.29" y="385" width="90" height="20" as="geometry" />
        </mxCell>
        <mxCell id="zMXqPVA5cicqRbTmdhPu-208" value="tag_in[4:0]" style="text;html=1;align=center;verticalAlign=middle;resizable=0;points=[];autosize=1;strokeColor=none;fillColor=none;fontColor=#000000;" parent="1" vertex="1">
          <mxGeometry x="1672.29" y="245" width="70" height="20" as="geometry" />
        </mxCell>
        <mxCell id="zMXqPVA5cicqRbTmdhPu-209" value="clk" style="text;html=1;align=center;verticalAlign=middle;resizable=0;points=[];autosize=1;strokeColor=none;fillColor=none;fontColor=#000000;" parent="1" vertex="1">
          <mxGeometry x="1676.29" y="495" width="30" height="20" as="geometry" />
        </mxCell>
        <mxCell id="zMXqPVA5cicqRbTmdhPu-210" value="rst" style="text;html=1;align=center;verticalAlign=middle;resizable=0;points=[];autosize=1;strokeColor=none;fillColor=none;fontColor=#000000;" parent="1" vertex="1">
          <mxGeometry x="1676.29" y="525" width="30" height="20" as="geometry" />
        </mxCell>
        <mxCell id="zMXqPVA5cicqRbTmdhPu-211" value="createdump" style="text;html=1;align=center;verticalAlign=middle;resizable=0;points=[];autosize=1;strokeColor=none;fillColor=none;fontColor=#000000;" parent="1" vertex="1">
          <mxGeometry x="1676.29" y="555" width="80" height="20" as="geometry" />
        </mxCell>
        <mxCell id="zMXqPVA5cicqRbTmdhPu-212" value="valid_out" style="text;html=1;align=center;verticalAlign=middle;resizable=0;points=[];autosize=1;strokeColor=none;fillColor=none;fontColor=#000000;" parent="1" vertex="1">
          <mxGeometry x="1866.29" y="395" width="60" height="20" as="geometry" />
        </mxCell>
        <mxCell id="zMXqPVA5cicqRbTmdhPu-213" value="err_cache" style="text;html=1;align=center;verticalAlign=middle;resizable=0;points=[];autosize=1;strokeColor=none;fillColor=none;fontColor=#000000;" parent="1" vertex="1">
          <mxGeometry x="1856.29" y="525" width="70" height="20" as="geometry" />
        </mxCell>
        <mxCell id="zMXqPVA5cicqRbTmdhPu-416" value="" style="endArrow=classic;html=1;rounded=0;entryX=-0.009;entryY=0.106;entryDx=0;entryDy=0;entryPerimeter=0;" parent="1" edge="1">
          <mxGeometry width="50" height="50" relative="1" as="geometry">
            <mxPoint x="1542.5799999999995" y="254.76999999999998" as="sourcePoint" />
            <mxPoint x="1671.2940000000003" y="254.40999999999985" as="targetPoint" />
          </mxGeometry>
        </mxCell>
        <mxCell id="zMXqPVA5cicqRbTmdhPu-417" value="" style="endArrow=classic;html=1;rounded=0;entryX=-0.009;entryY=0.106;entryDx=0;entryDy=0;entryPerimeter=0;" parent="1" edge="1">
          <mxGeometry width="50" height="50" relative="1" as="geometry">
            <mxPoint x="1542.5799999999995" y="275.36" as="sourcePoint" />
            <mxPoint x="1671.2940000000003" y="274.9999999999999" as="targetPoint" />
          </mxGeometry>
        </mxCell>
        <mxCell id="zMXqPVA5cicqRbTmdhPu-418" value="" style="endArrow=classic;html=1;rounded=0;entryX=-0.009;entryY=0.106;entryDx=0;entryDy=0;entryPerimeter=0;" parent="1" edge="1">
          <mxGeometry width="50" height="50" relative="1" as="geometry">
            <mxPoint x="1539.5799999999995" y="295.36" as="sourcePoint" />
            <mxPoint x="1668.2940000000003" y="294.9999999999999" as="targetPoint" />
          </mxGeometry>
        </mxCell>
        <mxCell id="zMXqPVA5cicqRbTmdhPu-419" value="" style="endArrow=classic;html=1;rounded=0;entryX=-0.009;entryY=0.106;entryDx=0;entryDy=0;entryPerimeter=0;" parent="1" edge="1">
          <mxGeometry width="50" height="50" relative="1" as="geometry">
            <mxPoint x="1542.5799999999995" y="335.36" as="sourcePoint" />
            <mxPoint x="1671.2940000000003" y="334.9999999999999" as="targetPoint" />
          </mxGeometry>
        </mxCell>
        <mxCell id="zMXqPVA5cicqRbTmdhPu-420" value="" style="endArrow=classic;html=1;rounded=0;entryX=-0.009;entryY=0.106;entryDx=0;entryDy=0;entryPerimeter=0;" parent="1" edge="1">
          <mxGeometry width="50" height="50" relative="1" as="geometry">
            <mxPoint x="1543.5799999999995" y="364.8800000000001" as="sourcePoint" />
            <mxPoint x="1672.2940000000003" y="364.52" as="targetPoint" />
          </mxGeometry>
        </mxCell>
        <mxCell id="zMXqPVA5cicqRbTmdhPu-421" value="" style="endArrow=classic;html=1;rounded=0;entryX=-0.009;entryY=0.106;entryDx=0;entryDy=0;entryPerimeter=0;" parent="1" edge="1">
          <mxGeometry width="50" height="50" relative="1" as="geometry">
            <mxPoint x="1542.5799999999995" y="395.3600000000001" as="sourcePoint" />
            <mxPoint x="1671.2940000000003" y="395" as="targetPoint" />
          </mxGeometry>
        </mxCell>
        <mxCell id="zMXqPVA5cicqRbTmdhPu-422" value="" style="endArrow=classic;html=1;rounded=0;entryX=-0.009;entryY=0.106;entryDx=0;entryDy=0;entryPerimeter=0;" parent="1" edge="1">
          <mxGeometry width="50" height="50" relative="1" as="geometry">
            <mxPoint x="1542.5799999999995" y="424.8800000000001" as="sourcePoint" />
            <mxPoint x="1671.2940000000003" y="424.52" as="targetPoint" />
          </mxGeometry>
        </mxCell>
        <mxCell id="zMXqPVA5cicqRbTmdhPu-423" value="" style="endArrow=classic;html=1;rounded=0;entryX=-0.009;entryY=0.106;entryDx=0;entryDy=0;entryPerimeter=0;" parent="1" edge="1">
          <mxGeometry width="50" height="50" relative="1" as="geometry">
            <mxPoint x="1542.5799999999995" y="504.8800000000001" as="sourcePoint" />
            <mxPoint x="1671.2940000000003" y="504.52" as="targetPoint" />
          </mxGeometry>
        </mxCell>
        <mxCell id="zMXqPVA5cicqRbTmdhPu-424" value="" style="endArrow=classic;html=1;rounded=0;entryX=-0.009;entryY=0.106;entryDx=0;entryDy=0;entryPerimeter=0;" parent="1" edge="1">
          <mxGeometry width="50" height="50" relative="1" as="geometry">
            <mxPoint x="1542.5799999999995" y="534.8800000000001" as="sourcePoint" />
            <mxPoint x="1671.2940000000003" y="534.52" as="targetPoint" />
          </mxGeometry>
        </mxCell>
        <mxCell id="zMXqPVA5cicqRbTmdhPu-425" value="" style="endArrow=classic;html=1;rounded=0;entryX=-0.009;entryY=0.106;entryDx=0;entryDy=0;entryPerimeter=0;" parent="1" edge="1">
          <mxGeometry width="50" height="50" relative="1" as="geometry">
            <mxPoint x="1543.5799999999995" y="564.8800000000001" as="sourcePoint" />
            <mxPoint x="1672.2940000000003" y="564.52" as="targetPoint" />
          </mxGeometry>
        </mxCell>
        <mxCell id="zMXqPVA5cicqRbTmdhPu-426" value="" style="endArrow=classic;html=1;rounded=0;strokeWidth=2;" parent="1" edge="1">
          <mxGeometry width="50" height="50" relative="1" as="geometry">
            <mxPoint x="1926.2899999999995" y="284.41000000000014" as="sourcePoint" />
            <mxPoint x="2310" y="180" as="targetPoint" />
            <Array as="points">
              <mxPoint x="2070" y="284" />
              <mxPoint x="2070" y="180" />
            </Array>
          </mxGeometry>
        </mxCell>
        <mxCell id="zMXqPVA5cicqRbTmdhPu-427" value="" style="endArrow=classic;html=1;rounded=0;entryX=-0.009;entryY=0.106;entryDx=0;entryDy=0;entryPerimeter=0;strokeWidth=2;" parent="1" edge="1">
          <mxGeometry width="50" height="50" relative="1" as="geometry">
            <mxPoint x="1925.29" y="305" as="sourcePoint" />
            <mxPoint x="2410.2940000000003" y="305" as="targetPoint" />
          </mxGeometry>
        </mxCell>
        <mxCell id="zMXqPVA5cicqRbTmdhPu-428" value="" style="endArrow=classic;html=1;rounded=0;strokeWidth=3;entryX=0.218;entryY=0.976;entryDx=0;entryDy=0;entryPerimeter=0;" parent="1" edge="1" target="zMXqPVA5cicqRbTmdhPu-584">
          <mxGeometry width="50" height="50" relative="1" as="geometry">
            <mxPoint x="1930" y="345" as="sourcePoint" />
            <mxPoint x="2150" y="540" as="targetPoint" />
            <Array as="points">
              <mxPoint x="2110" y="345" />
              <mxPoint x="2110" y="580" />
              <mxPoint x="2130" y="580" />
            </Array>
          </mxGeometry>
        </mxCell>
        <mxCell id="zMXqPVA5cicqRbTmdhPu-429" value="" style="endArrow=classic;html=1;rounded=0;strokeWidth=3;exitX=1.008;exitY=0.5;exitDx=0;exitDy=0;exitPerimeter=0;" parent="1" source="zMXqPVA5cicqRbTmdhPu-202" edge="1">
          <mxGeometry width="50" height="50" relative="1" as="geometry">
            <mxPoint x="2087.9999999999995" y="375.3600000000001" as="sourcePoint" />
            <mxPoint x="2320" y="760" as="targetPoint" />
            <Array as="points">
              <mxPoint x="2270" y="375" />
              <mxPoint x="2270" y="760" />
            </Array>
          </mxGeometry>
        </mxCell>
        <mxCell id="zMXqPVA5cicqRbTmdhPu-430" value="" style="endArrow=classic;html=1;rounded=0;strokeWidth=2;" parent="1" edge="1">
          <mxGeometry width="50" height="50" relative="1" as="geometry">
            <mxPoint x="1926.2899999999995" y="404.8800000000001" as="sourcePoint" />
            <mxPoint x="2510" y="410" as="targetPoint" />
          </mxGeometry>
        </mxCell>
        <mxCell id="zMXqPVA5cicqRbTmdhPu-431" value="" style="endArrow=classic;html=1;rounded=0;entryX=0.191;entryY=1;entryDx=0;entryDy=0;entryPerimeter=0;strokeWidth=2;" parent="1" edge="1" target="znvjFrMwsABYHBJ9YKuh-10">
          <mxGeometry width="50" height="50" relative="1" as="geometry">
            <mxPoint x="1925.2899999999995" y="534.6500000000001" as="sourcePoint" />
            <mxPoint x="2054.0040000000004" y="534.29" as="targetPoint" />
          </mxGeometry>
        </mxCell>
        <mxCell id="zMXqPVA5cicqRbTmdhPu-432" value="&lt;b&gt;&lt;font style=&quot;font-size: 14px&quot;&gt;four_bank_mem&lt;br&gt;&lt;/font&gt;&lt;/b&gt;" style="rounded=0;whiteSpace=wrap;html=1;fontColor=#000000;fillColor=none;" parent="1" vertex="1">
          <mxGeometry x="2560" y="930" width="260" height="330" as="geometry" />
        </mxCell>
        <mxCell id="zMXqPVA5cicqRbTmdhPu-433" value="Addr[15:0]" style="text;html=1;align=center;verticalAlign=middle;resizable=0;points=[];autosize=1;strokeColor=none;fillColor=none;fontColor=#000000;" parent="1" vertex="1">
          <mxGeometry x="2560" y="960" width="70" height="20" as="geometry" />
        </mxCell>
        <mxCell id="zMXqPVA5cicqRbTmdhPu-434" value="DataIn[15:0]" style="text;html=1;align=center;verticalAlign=middle;resizable=0;points=[];autosize=1;strokeColor=none;fillColor=none;fontColor=#000000;" parent="1" vertex="1">
          <mxGeometry x="2560" y="990" width="80" height="20" as="geometry" />
        </mxCell>
        <mxCell id="zMXqPVA5cicqRbTmdhPu-435" value="wr" style="text;html=1;align=center;verticalAlign=middle;resizable=0;points=[];autosize=1;strokeColor=none;fillColor=none;fontColor=#000000;" parent="1" vertex="1">
          <mxGeometry x="2560" y="1020" width="30" height="20" as="geometry" />
        </mxCell>
        <mxCell id="zMXqPVA5cicqRbTmdhPu-436" value="rd" style="text;html=1;align=center;verticalAlign=middle;resizable=0;points=[];autosize=1;strokeColor=none;fillColor=none;fontColor=#000000;" parent="1" vertex="1">
          <mxGeometry x="2560" y="1050" width="30" height="20" as="geometry" />
        </mxCell>
        <mxCell id="zMXqPVA5cicqRbTmdhPu-437" value="clk" style="text;html=1;align=center;verticalAlign=middle;resizable=0;points=[];autosize=1;strokeColor=none;fillColor=none;fontColor=#000000;" parent="1" vertex="1">
          <mxGeometry x="2560" y="1198" width="30" height="20" as="geometry" />
        </mxCell>
        <mxCell id="zMXqPVA5cicqRbTmdhPu-438" value="rst" style="text;html=1;align=center;verticalAlign=middle;resizable=0;points=[];autosize=1;strokeColor=none;fillColor=none;fontColor=#000000;" parent="1" vertex="1">
          <mxGeometry x="2560" y="1218" width="30" height="20" as="geometry" />
        </mxCell>
        <mxCell id="zMXqPVA5cicqRbTmdhPu-439" value="createdump" style="text;html=1;align=center;verticalAlign=middle;resizable=0;points=[];autosize=1;strokeColor=none;fillColor=none;fontColor=#000000;" parent="1" vertex="1">
          <mxGeometry x="2560" y="1238" width="80" height="20" as="geometry" />
        </mxCell>
        <mxCell id="zMXqPVA5cicqRbTmdhPu-440" value="DataOut [15:0]" style="text;html=1;align=center;verticalAlign=middle;resizable=0;points=[];autosize=1;strokeColor=none;fillColor=none;fontColor=#000000;" parent="1" vertex="1">
          <mxGeometry x="2725" y="1030" width="90" height="20" as="geometry" />
        </mxCell>
        <mxCell id="zMXqPVA5cicqRbTmdhPu-441" value="stall" style="text;html=1;align=center;verticalAlign=middle;resizable=0;points=[];autosize=1;strokeColor=none;fillColor=none;fontColor=#000000;" parent="1" vertex="1">
          <mxGeometry x="2780" y="1060" width="40" height="20" as="geometry" />
        </mxCell>
        <mxCell id="zMXqPVA5cicqRbTmdhPu-442" value="Busy [3:0]" style="text;html=1;align=center;verticalAlign=middle;resizable=0;points=[];autosize=1;strokeColor=none;fillColor=none;fontColor=#000000;" parent="1" vertex="1">
          <mxGeometry x="2745" y="1090" width="70" height="20" as="geometry" />
        </mxCell>
        <mxCell id="zMXqPVA5cicqRbTmdhPu-443" value="err_mem" style="text;html=1;align=center;verticalAlign=middle;resizable=0;points=[];autosize=1;strokeColor=none;fillColor=none;fontColor=#000000;" parent="1" vertex="1">
          <mxGeometry x="2760" y="1120" width="60" height="20" as="geometry" />
        </mxCell>
        <mxCell id="zMXqPVA5cicqRbTmdhPu-444" value="&lt;span style=&quot;font-size: 14px&quot;&gt;&lt;b&gt;cache&lt;br&gt;1&lt;br&gt;&lt;br&gt;256 lines&lt;br&gt;by 4 words&lt;br&gt;&lt;/b&gt;&lt;/span&gt;" style="rounded=0;whiteSpace=wrap;html=1;fontColor=#000000;fillColor=none;" parent="1" vertex="1">
          <mxGeometry x="1834" y="930" width="254" height="440" as="geometry" />
        </mxCell>
        <mxCell id="zMXqPVA5cicqRbTmdhPu-445" value="enable" style="text;html=1;align=center;verticalAlign=middle;resizable=0;points=[];autosize=1;strokeColor=none;fillColor=none;fontColor=#000000;" parent="1" vertex="1">
          <mxGeometry x="1834" y="960" width="50" height="20" as="geometry" />
        </mxCell>
        <mxCell id="zMXqPVA5cicqRbTmdhPu-446" value="offset[2:0]" style="text;html=1;align=center;verticalAlign=middle;resizable=0;points=[];autosize=1;strokeColor=none;fillColor=none;fontColor=#000000;" parent="1" vertex="1">
          <mxGeometry x="1833" y="1040" width="70" height="20" as="geometry" />
        </mxCell>
        <mxCell id="zMXqPVA5cicqRbTmdhPu-447" value="hit" style="text;html=1;align=center;verticalAlign=middle;resizable=0;points=[];autosize=1;strokeColor=none;fillColor=none;fontColor=#000000;" parent="1" vertex="1">
          <mxGeometry x="2048" y="1030" width="30" height="20" as="geometry" />
        </mxCell>
        <mxCell id="zMXqPVA5cicqRbTmdhPu-448" value="dirty" style="text;html=1;align=center;verticalAlign=middle;resizable=0;points=[];autosize=1;strokeColor=none;fillColor=none;fontColor=#000000;" parent="1" vertex="1">
          <mxGeometry x="2043" y="1060" width="40" height="20" as="geometry" />
        </mxCell>
        <mxCell id="zMXqPVA5cicqRbTmdhPu-449" value="tag_out[4:0]" style="text;html=1;align=center;verticalAlign=middle;resizable=0;points=[];autosize=1;strokeColor=none;fillColor=none;fontColor=#000000;" parent="1" vertex="1">
          <mxGeometry x="2008" y="1090" width="80" height="20" as="geometry" />
        </mxCell>
        <mxCell id="zMXqPVA5cicqRbTmdhPu-450" value="data_out[15:0]" style="text;html=1;align=center;verticalAlign=middle;resizable=0;points=[];autosize=1;strokeColor=none;fillColor=none;fontColor=#000000;" parent="1" vertex="1">
          <mxGeometry x="1998" y="1120" width="90" height="20" as="geometry" />
        </mxCell>
        <mxCell id="zMXqPVA5cicqRbTmdhPu-451" value="comp" style="text;html=1;align=center;verticalAlign=middle;resizable=0;points=[];autosize=1;strokeColor=none;fillColor=none;fontColor=#000000;" parent="1" vertex="1">
          <mxGeometry x="1833" y="1080" width="50" height="20" as="geometry" />
        </mxCell>
        <mxCell id="zMXqPVA5cicqRbTmdhPu-452" value="index[7:0]" style="text;html=1;align=center;verticalAlign=middle;resizable=0;points=[];autosize=1;strokeColor=none;fillColor=none;fontColor=#000000;" parent="1" vertex="1">
          <mxGeometry x="1833" y="1020" width="70" height="20" as="geometry" />
        </mxCell>
        <mxCell id="zMXqPVA5cicqRbTmdhPu-453" value="write" style="text;html=1;align=center;verticalAlign=middle;resizable=0;points=[];autosize=1;strokeColor=none;fillColor=none;fontColor=#000000;" parent="1" vertex="1">
          <mxGeometry x="1838" y="1110" width="40" height="20" as="geometry" />
        </mxCell>
        <mxCell id="zMXqPVA5cicqRbTmdhPu-454" value="valid_in" style="text;html=1;align=center;verticalAlign=middle;resizable=0;points=[];autosize=1;strokeColor=none;fillColor=none;fontColor=#000000;" parent="1" vertex="1">
          <mxGeometry x="1834" y="1170" width="60" height="20" as="geometry" />
        </mxCell>
        <mxCell id="zMXqPVA5cicqRbTmdhPu-455" value="data_in[15:0]" style="text;html=1;align=center;verticalAlign=middle;resizable=0;points=[];autosize=1;strokeColor=none;fillColor=none;fontColor=#000000;" parent="1" vertex="1">
          <mxGeometry x="1833" y="1140" width="90" height="20" as="geometry" />
        </mxCell>
        <mxCell id="zMXqPVA5cicqRbTmdhPu-456" value="tag_in[4:0]" style="text;html=1;align=center;verticalAlign=middle;resizable=0;points=[];autosize=1;strokeColor=none;fillColor=none;fontColor=#000000;" parent="1" vertex="1">
          <mxGeometry x="1834" y="1000" width="70" height="20" as="geometry" />
        </mxCell>
        <mxCell id="zMXqPVA5cicqRbTmdhPu-457" value="clk" style="text;html=1;align=center;verticalAlign=middle;resizable=0;points=[];autosize=1;strokeColor=none;fillColor=none;fontColor=#000000;" parent="1" vertex="1">
          <mxGeometry x="1838" y="1250" width="30" height="20" as="geometry" />
        </mxCell>
        <mxCell id="zMXqPVA5cicqRbTmdhPu-458" value="rst" style="text;html=1;align=center;verticalAlign=middle;resizable=0;points=[];autosize=1;strokeColor=none;fillColor=none;fontColor=#000000;" parent="1" vertex="1">
          <mxGeometry x="1838" y="1280" width="30" height="20" as="geometry" />
        </mxCell>
        <mxCell id="zMXqPVA5cicqRbTmdhPu-459" value="createdump" style="text;html=1;align=center;verticalAlign=middle;resizable=0;points=[];autosize=1;strokeColor=none;fillColor=none;fontColor=#000000;" parent="1" vertex="1">
          <mxGeometry x="1838" y="1310" width="80" height="20" as="geometry" />
        </mxCell>
        <mxCell id="zMXqPVA5cicqRbTmdhPu-460" value="valid_out" style="text;html=1;align=center;verticalAlign=middle;resizable=0;points=[];autosize=1;strokeColor=none;fillColor=none;fontColor=#000000;" parent="1" vertex="1">
          <mxGeometry x="2028" y="1150" width="60" height="20" as="geometry" />
        </mxCell>
        <mxCell id="zMXqPVA5cicqRbTmdhPu-461" value="err_cache" style="text;html=1;align=center;verticalAlign=middle;resizable=0;points=[];autosize=1;strokeColor=none;fillColor=none;fontColor=#000000;" parent="1" vertex="1">
          <mxGeometry x="2018" y="1280" width="70" height="20" as="geometry" />
        </mxCell>
        <mxCell id="zMXqPVA5cicqRbTmdhPu-462" value="&lt;b&gt;Cache Controller&lt;/b&gt;" style="rounded=0;whiteSpace=wrap;html=1;fontSize=14;fontColor=#000000;fillColor=none;" parent="1" vertex="1">
          <mxGeometry x="1820" y="1470" width="310" height="380" as="geometry" />
        </mxCell>
        <mxCell id="zMXqPVA5cicqRbTmdhPu-463" value="comp" style="text;html=1;align=center;verticalAlign=middle;resizable=0;points=[];autosize=1;strokeColor=none;fillColor=none;fontColor=#000000;" parent="1" vertex="1">
          <mxGeometry x="2080" y="1480" width="50" height="20" as="geometry" />
        </mxCell>
        <mxCell id="zMXqPVA5cicqRbTmdhPu-464" value="cache_write" style="text;html=1;align=center;verticalAlign=middle;resizable=0;points=[];autosize=1;strokeColor=none;fillColor=none;fontColor=#000000;" parent="1" vertex="1">
          <mxGeometry x="2048" y="1510" width="80" height="20" as="geometry" />
        </mxCell>
        <mxCell id="zMXqPVA5cicqRbTmdhPu-465" value="Address[15:0]" style="text;html=1;align=center;verticalAlign=middle;resizable=0;points=[];autosize=1;strokeColor=none;fillColor=none;fontSize=14;fontColor=#000000;" parent="1" vertex="1">
          <mxGeometry x="1100" y="920" width="100" height="20" as="geometry" />
        </mxCell>
        <mxCell id="zMXqPVA5cicqRbTmdhPu-466" value="err" style="text;html=1;align=center;verticalAlign=middle;resizable=0;points=[];autosize=1;strokeColor=none;fillColor=none;fontColor=#000000;" parent="1" vertex="1">
          <mxGeometry x="2095" y="1808" width="30" height="20" as="geometry" />
        </mxCell>
        <mxCell id="zMXqPVA5cicqRbTmdhPu-467" value="if err, stop writing mem" style="text;html=1;align=center;verticalAlign=middle;resizable=0;points=[];autosize=1;strokeColor=none;fillColor=none;fontSize=14;fontColor=#000000;" parent="1" vertex="1">
          <mxGeometry x="2660" y="1340" width="160" height="20" as="geometry" />
        </mxCell>
        <mxCell id="zMXqPVA5cicqRbTmdhPu-468" value="" style="endArrow=classic;html=1;rounded=0;fontSize=14;fontColor=#000000;entryX=0;entryY=0.75;entryDx=0;entryDy=0;" parent="1" target="zMXqPVA5cicqRbTmdhPu-444" edge="1">
          <mxGeometry width="50" height="50" relative="1" as="geometry">
            <mxPoint x="1513.999999999999" y="1260" as="sourcePoint" />
            <mxPoint x="1554" y="1240" as="targetPoint" />
          </mxGeometry>
        </mxCell>
        <mxCell id="zMXqPVA5cicqRbTmdhPu-470" value="" style="shape=xor;whiteSpace=wrap;html=1;fontSize=14;fontColor=#000000;fillColor=none;direction=south;" parent="1" vertex="1">
          <mxGeometry x="2800" y="1840" width="80" height="90" as="geometry" />
        </mxCell>
        <mxCell id="zMXqPVA5cicqRbTmdhPu-471" value="" style="endArrow=classic;html=1;rounded=0;fontSize=14;fontColor=#000000;entryX=0.175;entryY=0.25;entryDx=0;entryDy=0;entryPerimeter=0;" parent="1" target="zMXqPVA5cicqRbTmdhPu-470" edge="1">
          <mxGeometry width="50" height="50" relative="1" as="geometry">
            <mxPoint x="2820" y="1132.0000000000005" as="sourcePoint" />
            <mxPoint x="2554" y="1170" as="targetPoint" />
            <Array as="points">
              <mxPoint x="2860" y="1132" />
            </Array>
          </mxGeometry>
        </mxCell>
        <mxCell id="zMXqPVA5cicqRbTmdhPu-472" value="" style="endArrow=classic;html=1;rounded=0;fontSize=14;fontColor=#000000;entryX=0;entryY=0.75;entryDx=0;entryDy=0;" parent="1" edge="1">
          <mxGeometry width="50" height="50" relative="1" as="geometry">
            <mxPoint x="1513" y="1289.5000000000005" as="sourcePoint" />
            <mxPoint x="1833" y="1289.5000000000005" as="targetPoint" />
          </mxGeometry>
        </mxCell>
        <mxCell id="zMXqPVA5cicqRbTmdhPu-473" value="rst" style="text;html=1;align=center;verticalAlign=middle;resizable=0;points=[];autosize=1;strokeColor=none;fillColor=none;fontSize=14;fontColor=#000000;" parent="1" vertex="1">
          <mxGeometry x="1509" y="1270" width="30" height="20" as="geometry" />
        </mxCell>
        <mxCell id="zMXqPVA5cicqRbTmdhPu-474" value="clk" style="text;html=1;align=center;verticalAlign=middle;resizable=0;points=[];autosize=1;strokeColor=none;fillColor=none;fontSize=14;fontColor=#000000;" parent="1" vertex="1">
          <mxGeometry x="1509" y="1240" width="30" height="20" as="geometry" />
        </mxCell>
        <mxCell id="zMXqPVA5cicqRbTmdhPu-475" value="" style="endArrow=classic;html=1;rounded=0;fontSize=14;fontColor=#000000;entryX=-0.001;entryY=0.851;entryDx=0;entryDy=0;entryPerimeter=0;" parent="1" target="zMXqPVA5cicqRbTmdhPu-432" edge="1">
          <mxGeometry width="50" height="50" relative="1" as="geometry">
            <mxPoint x="1674.000000000001" y="1260" as="sourcePoint" />
            <mxPoint x="2204" y="1130" as="targetPoint" />
            <Array as="points">
              <mxPoint x="1674" y="1390" />
              <mxPoint x="2104" y="1390" />
              <mxPoint x="2104" y="1210" />
            </Array>
          </mxGeometry>
        </mxCell>
        <mxCell id="zMXqPVA5cicqRbTmdhPu-476" value="" style="endArrow=classic;html=1;rounded=0;fontSize=14;fontColor=#000000;entryX=-0.007;entryY=0.911;entryDx=0;entryDy=0;entryPerimeter=0;" parent="1" target="zMXqPVA5cicqRbTmdhPu-432" edge="1">
          <mxGeometry width="50" height="50" relative="1" as="geometry">
            <mxPoint x="1654.000000000001" y="1291" as="sourcePoint" />
            <mxPoint x="2234" y="1170" as="targetPoint" />
            <Array as="points">
              <mxPoint x="1654" y="1410" />
              <mxPoint x="2114" y="1410" />
              <mxPoint x="2114" y="1230" />
            </Array>
          </mxGeometry>
        </mxCell>
        <mxCell id="zMXqPVA5cicqRbTmdhPu-477" value="" style="endArrow=classic;html=1;rounded=0;fontSize=14;fontColor=#000000;entryX=-0.026;entryY=0.578;entryDx=0;entryDy=0;entryPerimeter=0;strokeColor=#000000;exitX=-0.002;exitY=0.495;exitDx=0;exitDy=0;exitPerimeter=0;" parent="1" target="zMXqPVA5cicqRbTmdhPu-439" edge="1">
          <mxGeometry width="50" height="50" relative="1" as="geometry">
            <mxPoint x="1349.9399999999996" y="1419.9" as="sourcePoint" />
            <mxPoint x="1614" y="1420" as="targetPoint" />
            <Array as="points">
              <mxPoint x="1790" y="1420" />
              <mxPoint x="2124" y="1420" />
              <mxPoint x="2124" y="1250" />
            </Array>
          </mxGeometry>
        </mxCell>
        <mxCell id="zMXqPVA5cicqRbTmdhPu-478" value="hit" style="text;html=1;align=center;verticalAlign=middle;resizable=0;points=[];autosize=1;strokeColor=none;fillColor=none;fontColor=#000000;" parent="1" vertex="1">
          <mxGeometry x="1820" y="1690" width="30" height="20" as="geometry" />
        </mxCell>
        <mxCell id="zMXqPVA5cicqRbTmdhPu-479" value="dirty" style="text;html=1;align=center;verticalAlign=middle;resizable=0;points=[];autosize=1;strokeColor=none;fillColor=none;fontColor=#000000;" parent="1" vertex="1">
          <mxGeometry x="1820" y="1630" width="40" height="20" as="geometry" />
        </mxCell>
        <mxCell id="zMXqPVA5cicqRbTmdhPu-480" value="&lt;font style=&quot;font-size: 10px&quot;&gt;from index&lt;/font&gt;" style="text;html=1;align=center;verticalAlign=middle;resizable=0;points=[];autosize=1;strokeColor=none;fillColor=none;fontSize=14;fontColor=#000000;" parent="1" vertex="1">
          <mxGeometry x="1764" y="1160" width="60" height="20" as="geometry" />
        </mxCell>
        <mxCell id="zMXqPVA5cicqRbTmdhPu-481" value="" style="endArrow=classic;html=1;rounded=0;fontSize=10;fontColor=#000000;exitX=1.016;exitY=0.669;exitDx=0;exitDy=0;exitPerimeter=0;strokeColor=#000000;strokeWidth=3;" parent="1" source="zMXqPVA5cicqRbTmdhPu-450" edge="1">
          <mxGeometry width="50" height="50" relative="1" as="geometry">
            <mxPoint x="2164" y="1090" as="sourcePoint" />
            <mxPoint x="2320" y="800" as="targetPoint" />
            <Array as="points">
              <mxPoint x="2110" y="1133" />
              <mxPoint x="2110" y="800" />
            </Array>
          </mxGeometry>
        </mxCell>
        <mxCell id="zMXqPVA5cicqRbTmdhPu-482" value="wr" style="text;html=1;align=center;verticalAlign=middle;resizable=0;points=[];autosize=1;strokeColor=none;fillColor=none;fontColor=#000000;" parent="1" vertex="1">
          <mxGeometry x="1820" y="1570" width="30" height="20" as="geometry" />
        </mxCell>
        <mxCell id="zMXqPVA5cicqRbTmdhPu-483" value="rd" style="text;html=1;align=center;verticalAlign=middle;resizable=0;points=[];autosize=1;strokeColor=none;fillColor=none;fontColor=#000000;" parent="1" vertex="1">
          <mxGeometry x="1820" y="1540" width="30" height="20" as="geometry" />
        </mxCell>
        <mxCell id="zMXqPVA5cicqRbTmdhPu-484" value="" style="endArrow=classic;html=1;rounded=0;fontSize=10;fontColor=#000000;entryX=-0.007;entryY=0.885;entryDx=0;entryDy=0;entryPerimeter=0;strokeColor=#000000;" parent="1" target="zMXqPVA5cicqRbTmdhPu-444" edge="1">
          <mxGeometry width="50" height="50" relative="1" as="geometry">
            <mxPoint x="1794.000000000001" y="1420" as="sourcePoint" />
            <mxPoint x="1804" y="1330" as="targetPoint" />
            <Array as="points">
              <mxPoint x="1794" y="1320" />
            </Array>
          </mxGeometry>
        </mxCell>
        <mxCell id="zMXqPVA5cicqRbTmdhPu-485" value="valid" style="text;html=1;align=center;verticalAlign=middle;resizable=0;points=[];autosize=1;strokeColor=none;fillColor=none;fontColor=#000000;" parent="1" vertex="1">
          <mxGeometry x="1820" y="1600" width="40" height="20" as="geometry" />
        </mxCell>
        <mxCell id="zMXqPVA5cicqRbTmdhPu-486" value="stall" style="text;html=1;align=center;verticalAlign=middle;resizable=0;points=[];autosize=1;strokeColor=none;fillColor=none;fontColor=#000000;" parent="1" vertex="1">
          <mxGeometry x="1820" y="1660" width="40" height="20" as="geometry" />
        </mxCell>
        <mxCell id="zMXqPVA5cicqRbTmdhPu-487" value="enable" style="text;html=1;align=center;verticalAlign=middle;resizable=0;points=[];autosize=1;strokeColor=none;fillColor=none;fontColor=#000000;" parent="1" vertex="1">
          <mxGeometry x="2078" y="1828" width="50" height="20" as="geometry" />
        </mxCell>
        <mxCell id="zMXqPVA5cicqRbTmdhPu-488" value="" style="shape=table;html=1;whiteSpace=wrap;startSize=0;container=1;collapsible=0;childLayout=tableLayout;" parent="1" vertex="1">
          <mxGeometry x="960" y="940" width="380" height="40" as="geometry" />
        </mxCell>
        <mxCell id="zMXqPVA5cicqRbTmdhPu-489" value="" style="shape=tableRow;horizontal=0;startSize=0;swimlaneHead=0;swimlaneBody=0;top=0;left=0;bottom=0;right=0;collapsible=0;dropTarget=0;fillColor=none;points=[[0,0.5],[1,0.5]];portConstraint=eastwest;" parent="zMXqPVA5cicqRbTmdhPu-488" vertex="1">
          <mxGeometry width="380" height="40" as="geometry" />
        </mxCell>
        <mxCell id="zMXqPVA5cicqRbTmdhPu-490" value="&lt;span&gt;Tag&lt;br&gt;[15:11]&lt;br&gt;&lt;/span&gt;" style="shape=partialRectangle;html=1;whiteSpace=wrap;connectable=0;fillColor=none;top=0;left=0;bottom=0;right=0;overflow=hidden;" parent="zMXqPVA5cicqRbTmdhPu-489" vertex="1">
          <mxGeometry width="119" height="40" as="geometry">
            <mxRectangle width="119" height="40" as="alternateBounds" />
          </mxGeometry>
        </mxCell>
        <mxCell id="zMXqPVA5cicqRbTmdhPu-491" value="&lt;span&gt;Index&lt;br&gt;[10:3]&lt;br&gt;&lt;/span&gt;" style="shape=partialRectangle;html=1;whiteSpace=wrap;connectable=0;fillColor=none;top=0;left=0;bottom=0;right=0;overflow=hidden;" parent="zMXqPVA5cicqRbTmdhPu-489" vertex="1">
          <mxGeometry x="119" width="117" height="40" as="geometry">
            <mxRectangle width="117" height="40" as="alternateBounds" />
          </mxGeometry>
        </mxCell>
        <mxCell id="zMXqPVA5cicqRbTmdhPu-492" value="&lt;span&gt;Word Offset&lt;br&gt;[2:1]&lt;br&gt;&lt;/span&gt;" style="shape=partialRectangle;html=1;whiteSpace=wrap;connectable=0;fillColor=none;top=0;left=0;bottom=0;right=0;overflow=hidden;" parent="zMXqPVA5cicqRbTmdhPu-489" vertex="1">
          <mxGeometry x="236" width="81" height="40" as="geometry">
            <mxRectangle width="81" height="40" as="alternateBounds" />
          </mxGeometry>
        </mxCell>
        <mxCell id="zMXqPVA5cicqRbTmdhPu-493" value="Byte Offset&lt;br&gt;[0]" style="shape=partialRectangle;html=1;whiteSpace=wrap;connectable=0;fillColor=none;top=0;left=0;bottom=0;right=0;overflow=hidden;" parent="zMXqPVA5cicqRbTmdhPu-489" vertex="1">
          <mxGeometry x="317" width="63" height="40" as="geometry">
            <mxRectangle width="63" height="40" as="alternateBounds" />
          </mxGeometry>
        </mxCell>
        <mxCell id="zMXqPVA5cicqRbTmdhPu-494" value="" style="endArrow=classic;html=1;rounded=0;fontSize=10;fontColor=#000000;strokeColor=#000000;strokeWidth=3;entryX=0.348;entryY=1;entryDx=0;entryDy=0;entryPerimeter=0;" parent="1" target="zMXqPVA5cicqRbTmdhPu-556" edge="1">
          <mxGeometry width="50" height="50" relative="1" as="geometry">
            <mxPoint x="1150" y="920" as="sourcePoint" />
            <mxPoint x="2260" y="972" as="targetPoint" />
            <Array as="points">
              <mxPoint x="1150" y="880" />
              <mxPoint x="2150" y="880" />
              <mxPoint x="2150" y="1000" />
            </Array>
          </mxGeometry>
        </mxCell>
        <mxCell id="zMXqPVA5cicqRbTmdhPu-495" value="" style="endArrow=none;html=1;rounded=0;fontSize=10;fontColor=#000000;strokeColor=#000000;exitX=0.711;exitY=0.993;exitDx=0;exitDy=0;exitPerimeter=0;strokeWidth=2;" parent="1" source="zMXqPVA5cicqRbTmdhPu-489" edge="1">
          <mxGeometry width="50" height="50" relative="1" as="geometry">
            <mxPoint x="1220" y="1040" as="sourcePoint" />
            <mxPoint x="1270" y="1000" as="targetPoint" />
            <Array as="points">
              <mxPoint x="1230" y="1000" />
            </Array>
          </mxGeometry>
        </mxCell>
        <mxCell id="zMXqPVA5cicqRbTmdhPu-496" value="" style="endArrow=none;html=1;rounded=0;fontSize=10;fontColor=#000000;strokeColor=#000000;" parent="1" edge="1">
          <mxGeometry width="50" height="50" relative="1" as="geometry">
            <mxPoint x="1270" y="1000" as="sourcePoint" />
            <mxPoint x="1310" y="980" as="targetPoint" />
            <Array as="points">
              <mxPoint x="1310" y="1000" />
            </Array>
          </mxGeometry>
        </mxCell>
        <mxCell id="zMXqPVA5cicqRbTmdhPu-497" value="" style="endArrow=none;html=1;rounded=0;fontSize=10;fontColor=#000000;strokeColor=#000000;" parent="1" edge="1">
          <mxGeometry width="50" height="50" relative="1" as="geometry">
            <mxPoint x="1269.3199999999997" y="1000" as="sourcePoint" />
            <mxPoint x="1309.3199999999997" y="980" as="targetPoint" />
            <Array as="points">
              <mxPoint x="1309.32" y="1000" />
            </Array>
          </mxGeometry>
        </mxCell>
        <mxCell id="zMXqPVA5cicqRbTmdhPu-498" value="" style="endArrow=none;html=1;rounded=0;fontSize=10;fontColor=#000000;strokeColor=#000000;" parent="1" edge="1">
          <mxGeometry width="50" height="50" relative="1" as="geometry">
            <mxPoint x="1269.3199999999997" y="1000" as="sourcePoint" />
            <mxPoint x="1309.3199999999997" y="980" as="targetPoint" />
            <Array as="points">
              <mxPoint x="1309.32" y="1000" />
              <mxPoint x="1309" y="990" />
            </Array>
          </mxGeometry>
        </mxCell>
        <mxCell id="zMXqPVA5cicqRbTmdhPu-499" value="" style="endArrow=classic;html=1;rounded=0;fontSize=10;fontColor=#000000;strokeColor=#000000;entryX=0.024;entryY=0.433;entryDx=0;entryDy=0;entryPerimeter=0;exitX=0.156;exitY=1.019;exitDx=0;exitDy=0;exitPerimeter=0;strokeWidth=3;" parent="1" edge="1">
          <mxGeometry width="50" height="50" relative="1" as="geometry">
            <mxPoint x="1019.2799999999997" y="980" as="sourcePoint" />
            <mxPoint x="1834.000000000001" y="1008.8199999999997" as="targetPoint" />
            <Array as="points">
              <mxPoint x="1019" y="1009.24" />
            </Array>
          </mxGeometry>
        </mxCell>
        <mxCell id="zMXqPVA5cicqRbTmdhPu-500" value="" style="endArrow=classic;html=1;rounded=0;fontSize=10;fontColor=#000000;strokeColor=#000000;entryX=0.024;entryY=0.433;entryDx=0;entryDy=0;entryPerimeter=0;exitX=0.47;exitY=1.036;exitDx=0;exitDy=0;exitPerimeter=0;strokeWidth=3;" parent="1" edge="1">
          <mxGeometry width="50" height="50" relative="1" as="geometry">
            <mxPoint x="1138.5999999999995" y="980.6800000000003" as="sourcePoint" />
            <mxPoint x="1834.000000000001" y="1028.4099999999999" as="targetPoint" />
            <Array as="points">
              <mxPoint x="1139" y="1029.24" />
            </Array>
          </mxGeometry>
        </mxCell>
        <mxCell id="zMXqPVA5cicqRbTmdhPu-501" value="" style="endArrow=classic;html=1;rounded=0;fontSize=10;fontColor=#000000;strokeColor=#000000;strokeWidth=3;" parent="1" edge="1">
          <mxGeometry width="50" height="50" relative="1" as="geometry">
            <mxPoint x="1269.3199999999997" y="999.2399999999998" as="sourcePoint" />
            <mxPoint x="1390" y="1050" as="targetPoint" />
            <Array as="points">
              <mxPoint x="1269.32" y="1049.24" />
            </Array>
          </mxGeometry>
        </mxCell>
        <mxCell id="zMXqPVA5cicqRbTmdhPu-502" value="" style="endArrow=classic;html=1;rounded=0;fontSize=10;fontColor=#000000;strokeColor=#000000;strokeWidth=3;entryX=-0.032;entryY=0.494;entryDx=0;entryDy=0;entryPerimeter=0;exitX=0.5;exitY=0;exitDx=0;exitDy=0;" parent="1" source="zMXqPVA5cicqRbTmdhPu-580" target="zMXqPVA5cicqRbTmdhPu-434" edge="1">
          <mxGeometry width="50" height="50" relative="1" as="geometry">
            <mxPoint x="2390" y="800" as="sourcePoint" />
            <mxPoint x="2470" y="860" as="targetPoint" />
            <Array as="points">
              <mxPoint x="2460" y="785" />
              <mxPoint x="2460" y="1000" />
            </Array>
          </mxGeometry>
        </mxCell>
        <mxCell id="zMXqPVA5cicqRbTmdhPu-503" value="data_out[15:0]" style="text;html=1;align=center;verticalAlign=middle;resizable=0;points=[];autosize=1;strokeColor=none;fillColor=none;fontColor=#000000;" parent="1" vertex="1">
          <mxGeometry x="2480" y="760" width="90" height="20" as="geometry" />
        </mxCell>
        <mxCell id="zMXqPVA5cicqRbTmdhPu-504" value="" style="endArrow=classic;html=1;rounded=0;fontSize=10;fontColor=#000000;strokeColor=#000000;strokeWidth=3;entryX=0;entryY=0.503;entryDx=0;entryDy=0;entryPerimeter=0;exitX=0.5;exitY=0;exitDx=0;exitDy=0;" parent="1" source="zMXqPVA5cicqRbTmdhPu-507" target="zMXqPVA5cicqRbTmdhPu-455" edge="1">
          <mxGeometry width="50" height="50" relative="1" as="geometry">
            <mxPoint x="1070.0000000000002" y="1200" as="sourcePoint" />
            <mxPoint x="1660" y="780" as="targetPoint" />
            <Array as="points">
              <mxPoint x="1030" y="1075" />
              <mxPoint x="1030" y="1080" />
              <mxPoint x="1030" y="1150" />
              <mxPoint x="1270" y="1150" />
            </Array>
          </mxGeometry>
        </mxCell>
        <mxCell id="zMXqPVA5cicqRbTmdhPu-505" value="clk" style="text;html=1;align=center;verticalAlign=middle;resizable=0;points=[];autosize=1;strokeColor=none;fillColor=none;fontColor=#000000;" parent="1" vertex="1">
          <mxGeometry x="1820" y="1480" width="30" height="20" as="geometry" />
        </mxCell>
        <mxCell id="zMXqPVA5cicqRbTmdhPu-506" value="rst" style="text;html=1;align=center;verticalAlign=middle;resizable=0;points=[];autosize=1;strokeColor=none;fillColor=none;fontColor=#000000;" parent="1" vertex="1">
          <mxGeometry x="1820" y="1510" width="30" height="20" as="geometry" />
        </mxCell>
        <mxCell id="zMXqPVA5cicqRbTmdhPu-507" value="MUX" style="shape=trapezoid;perimeter=trapezoidPerimeter;whiteSpace=wrap;html=1;fixedSize=1;fontSize=10;fontColor=#000000;fillColor=none;direction=south;" parent="1" vertex="1">
          <mxGeometry x="870" y="1040" width="40" height="70" as="geometry" />
        </mxCell>
        <mxCell id="zMXqPVA5cicqRbTmdhPu-508" value="" style="endArrow=classic;html=1;rounded=0;fontSize=10;fontColor=#000000;strokeColor=#000000;strokeWidth=3;entryX=0.75;entryY=1;entryDx=0;entryDy=0;exitX=1.003;exitY=0.343;exitDx=0;exitDy=0;exitPerimeter=0;" parent="1" source="zMXqPVA5cicqRbTmdhPu-432" target="zMXqPVA5cicqRbTmdhPu-507" edge="1">
          <mxGeometry width="50" height="50" relative="1" as="geometry">
            <mxPoint x="2885" y="913" as="sourcePoint" />
            <mxPoint x="715" y="1070" as="targetPoint" />
            <Array as="points">
              <mxPoint x="3015" y="1043" />
              <mxPoint x="3015" y="790" />
              <mxPoint x="3015" y="720" />
              <mxPoint x="655" y="710" />
              <mxPoint x="655" y="750" />
              <mxPoint x="655" y="1090" />
            </Array>
          </mxGeometry>
        </mxCell>
        <mxCell id="zMXqPVA5cicqRbTmdhPu-509" value="valid_in" style="text;html=1;align=center;verticalAlign=middle;resizable=0;points=[];autosize=1;strokeColor=none;fillColor=none;fontColor=#000000;" parent="1" vertex="1">
          <mxGeometry x="2070" y="1788" width="60" height="20" as="geometry" />
        </mxCell>
        <mxCell id="zMXqPVA5cicqRbTmdhPu-510" value="When write == 0, the data selected by &quot;index&quot; and &quot;offset&quot; appears on this output" style="text;html=1;align=center;verticalAlign=middle;resizable=0;points=[];autosize=1;strokeColor=none;fillColor=none;" parent="1" vertex="1">
          <mxGeometry x="2480" y="790" width="440" height="20" as="geometry" />
        </mxCell>
        <mxCell id="zMXqPVA5cicqRbTmdhPu-511" value="16" style="text;html=1;strokeColor=none;fillColor=none;align=center;verticalAlign=middle;whiteSpace=wrap;rounded=0;" parent="1" vertex="1">
          <mxGeometry x="1110" y="1127" width="20" height="10" as="geometry" />
        </mxCell>
        <mxCell id="zMXqPVA5cicqRbTmdhPu-512" value="" style="endArrow=none;html=1;rounded=0;" parent="1" edge="1">
          <mxGeometry width="50" height="50" relative="1" as="geometry">
            <mxPoint x="1110" y="1162.0000000000005" as="sourcePoint" />
            <mxPoint x="1130" y="1142.0000000000005" as="targetPoint" />
            <Array as="points">
              <mxPoint x="1130" y="1142" />
            </Array>
          </mxGeometry>
        </mxCell>
        <mxCell id="zMXqPVA5cicqRbTmdhPu-513" value="16" style="text;html=1;strokeColor=none;fillColor=none;align=center;verticalAlign=middle;whiteSpace=wrap;rounded=0;" parent="1" vertex="1">
          <mxGeometry x="2400" y="765" width="20" height="10" as="geometry" />
        </mxCell>
        <mxCell id="zMXqPVA5cicqRbTmdhPu-514" value="" style="endArrow=none;html=1;rounded=0;" parent="1" edge="1">
          <mxGeometry width="50" height="50" relative="1" as="geometry">
            <mxPoint x="2400" y="795" as="sourcePoint" />
            <mxPoint x="2420" y="775" as="targetPoint" />
            <Array as="points">
              <mxPoint x="2420" y="775" />
            </Array>
          </mxGeometry>
        </mxCell>
        <mxCell id="zMXqPVA5cicqRbTmdhPu-515" value="writeback_data&lt;span&gt;&lt;br&gt;&lt;/span&gt;" style="text;html=1;align=center;verticalAlign=middle;resizable=0;points=[];autosize=1;strokeColor=none;fillColor=none;" parent="1" vertex="1">
          <mxGeometry x="2475" y="840" width="100" height="20" as="geometry" />
        </mxCell>
        <mxCell id="zMXqPVA5cicqRbTmdhPu-516" value="Write data from cache to memory" style="text;html=1;align=center;verticalAlign=middle;resizable=0;points=[];autosize=1;strokeColor=none;fillColor=none;" parent="1" vertex="1">
          <mxGeometry x="2480" y="860" width="190" height="20" as="geometry" />
        </mxCell>
        <mxCell id="zMXqPVA5cicqRbTmdhPu-517" value="" style="endArrow=none;html=1;rounded=0;" parent="1" edge="1">
          <mxGeometry width="50" height="50" relative="1" as="geometry">
            <mxPoint x="771.4999999999991" y="1102.0000000000005" as="sourcePoint" />
            <mxPoint x="791.4999999999991" y="1082.0000000000005" as="targetPoint" />
            <Array as="points">
              <mxPoint x="791.5" y="1082" />
            </Array>
          </mxGeometry>
        </mxCell>
        <mxCell id="zMXqPVA5cicqRbTmdhPu-518" value="16" style="text;html=1;strokeColor=none;fillColor=none;align=center;verticalAlign=middle;whiteSpace=wrap;rounded=0;" parent="1" vertex="1">
          <mxGeometry x="770" y="1062" width="23" height="20" as="geometry" />
        </mxCell>
        <mxCell id="zMXqPVA5cicqRbTmdhPu-519" value="input request data&lt;br&gt;from CPU" style="rounded=0;whiteSpace=wrap;html=1;" parent="1" vertex="1">
          <mxGeometry x="270" y="755.39" width="120" height="54.61" as="geometry" />
        </mxCell>
        <mxCell id="zMXqPVA5cicqRbTmdhPu-520" value="" style="endArrow=classic;html=1;rounded=0;strokeWidth=2;exitX=1;exitY=0.5;exitDx=0;exitDy=0;entryX=0.25;entryY=1;entryDx=0;entryDy=0;" parent="1" source="zMXqPVA5cicqRbTmdhPu-519" target="zMXqPVA5cicqRbTmdhPu-507" edge="1">
          <mxGeometry width="50" height="50" relative="1" as="geometry">
            <mxPoint x="450" y="790" as="sourcePoint" />
            <mxPoint x="510" y="780" as="targetPoint" />
            <Array as="points">
              <mxPoint x="830" y="780" />
              <mxPoint x="830" y="1058" />
            </Array>
          </mxGeometry>
        </mxCell>
        <mxCell id="zMXqPVA5cicqRbTmdhPu-521" value="" style="endArrow=classic;html=1;rounded=0;strokeWidth=2;exitX=1;exitY=0.5;exitDx=0;exitDy=0;entryX=0.25;entryY=1;entryDx=0;entryDy=0;strokeColor=#000000;" parent="1" edge="1">
          <mxGeometry width="50" height="50" relative="1" as="geometry">
            <mxPoint x="390" y="782.6949999999997" as="sourcePoint" />
            <mxPoint x="870" y="1057.5" as="targetPoint" />
            <Array as="points">
              <mxPoint x="830" y="780" />
              <mxPoint x="830" y="1058" />
            </Array>
          </mxGeometry>
        </mxCell>
        <mxCell id="zMXqPVA5cicqRbTmdhPu-522" value="mem_offset[2:0]" style="text;html=1;align=center;verticalAlign=middle;resizable=0;points=[];autosize=1;strokeColor=none;fillColor=none;" parent="1" vertex="1">
          <mxGeometry x="2030" y="1630" width="100" height="20" as="geometry" />
        </mxCell>
        <mxCell id="zMXqPVA5cicqRbTmdhPu-523" value="cache_offset[2:0]" style="text;html=1;align=center;verticalAlign=middle;resizable=0;points=[];autosize=1;strokeColor=none;fillColor=none;" parent="1" vertex="1">
          <mxGeometry x="2010" y="1540" width="110" height="20" as="geometry" />
        </mxCell>
        <mxCell id="zMXqPVA5cicqRbTmdhPu-525" value="mem_wr" style="text;html=1;align=center;verticalAlign=middle;resizable=0;points=[];autosize=1;strokeColor=none;fillColor=none;" parent="1" vertex="1">
          <mxGeometry x="2070" y="1660" width="60" height="20" as="geometry" />
        </mxCell>
        <mxCell id="zMXqPVA5cicqRbTmdhPu-526" value="mem_rd" style="text;html=1;align=center;verticalAlign=middle;resizable=0;points=[];autosize=1;strokeColor=none;fillColor=none;" parent="1" vertex="1">
          <mxGeometry x="2068" y="1690" width="60" height="20" as="geometry" />
        </mxCell>
        <mxCell id="zMXqPVA5cicqRbTmdhPu-527" value="cache_select" style="text;html=1;align=center;verticalAlign=middle;resizable=0;points=[];autosize=1;strokeColor=none;fillColor=none;" parent="1" vertex="1">
          <mxGeometry x="2040" y="1600" width="90" height="20" as="geometry" />
        </mxCell>
        <mxCell id="zMXqPVA5cicqRbTmdhPu-528" value="done" style="text;html=1;align=center;verticalAlign=middle;resizable=0;points=[];autosize=1;strokeColor=none;fillColor=none;" parent="1" vertex="1">
          <mxGeometry x="2085" y="1770" width="40" height="20" as="geometry" />
        </mxCell>
        <mxCell id="zMXqPVA5cicqRbTmdhPu-529" value="cache_hit" style="text;html=1;align=center;verticalAlign=middle;resizable=0;points=[];autosize=1;strokeColor=none;fillColor=none;" parent="1" vertex="1">
          <mxGeometry x="2055" y="1720" width="70" height="20" as="geometry" />
        </mxCell>
        <mxCell id="zMXqPVA5cicqRbTmdhPu-530" value="stall_out" style="text;html=1;align=center;verticalAlign=middle;resizable=0;points=[];autosize=1;strokeColor=none;fillColor=none;" parent="1" vertex="1">
          <mxGeometry x="2068" y="1750" width="60" height="20" as="geometry" />
        </mxCell>
        <mxCell id="zMXqPVA5cicqRbTmdhPu-531" value="" style="endArrow=classic;html=1;rounded=0;exitX=0.986;exitY=0.564;exitDx=0;exitDy=0;exitPerimeter=0;entryX=0.019;entryY=0.35;entryDx=0;entryDy=0;entryPerimeter=0;" parent="1" source="zMXqPVA5cicqRbTmdhPu-525" target="zMXqPVA5cicqRbTmdhPu-435" edge="1">
          <mxGeometry width="50" height="50" relative="1" as="geometry">
            <mxPoint x="2220" y="1500" as="sourcePoint" />
            <mxPoint x="2380" y="1070" as="targetPoint" />
            <Array as="points">
              <mxPoint x="2510" y="1671" />
              <mxPoint x="2510" y="1027" />
            </Array>
          </mxGeometry>
        </mxCell>
        <mxCell id="zMXqPVA5cicqRbTmdhPu-532" value="" style="endArrow=classic;html=1;rounded=0;exitX=0.999;exitY=0.609;exitDx=0;exitDy=0;exitPerimeter=0;entryX=0;entryY=0.5;entryDx=0;entryDy=0;entryPerimeter=0;" parent="1" source="zMXqPVA5cicqRbTmdhPu-462" target="zMXqPVA5cicqRbTmdhPu-436" edge="1">
          <mxGeometry width="50" height="50" relative="1" as="geometry">
            <mxPoint x="2250" y="1760" as="sourcePoint" />
            <mxPoint x="2300" y="1710" as="targetPoint" />
            <Array as="points">
              <mxPoint x="2390" y="1701" />
              <mxPoint x="2530" y="1700" />
              <mxPoint x="2530" y="1060" />
            </Array>
          </mxGeometry>
        </mxCell>
        <mxCell id="zMXqPVA5cicqRbTmdhPu-533" value="" style="endArrow=classic;html=1;rounded=0;exitX=1.044;exitY=0.258;exitDx=0;exitDy=0;exitPerimeter=0;entryX=-0.11;entryY=0.642;entryDx=0;entryDy=0;entryPerimeter=0;" parent="1" source="zMXqPVA5cicqRbTmdhPu-441" target="zMXqPVA5cicqRbTmdhPu-486" edge="1">
          <mxGeometry width="50" height="50" relative="1" as="geometry">
            <mxPoint x="2910" y="1110" as="sourcePoint" />
            <mxPoint x="2830" y="1570" as="targetPoint" />
            <Array as="points">
              <mxPoint x="2950" y="1065" />
              <mxPoint x="2950" y="1840" />
              <mxPoint x="2950" y="1950" />
              <mxPoint x="1700" y="1960" />
              <mxPoint x="1700" y="1673" />
            </Array>
          </mxGeometry>
        </mxCell>
        <mxCell id="zMXqPVA5cicqRbTmdhPu-537" value="" style="endArrow=classic;html=1;rounded=0;entryX=0.021;entryY=0.637;entryDx=0;entryDy=0;entryPerimeter=0;" parent="1" target="zMXqPVA5cicqRbTmdhPu-505" edge="1">
          <mxGeometry width="50" height="50" relative="1" as="geometry">
            <mxPoint x="1590" y="1260" as="sourcePoint" />
            <mxPoint x="1580" y="1480" as="targetPoint" />
            <Array as="points">
              <mxPoint x="1590" y="1490" />
            </Array>
          </mxGeometry>
        </mxCell>
        <mxCell id="zMXqPVA5cicqRbTmdhPu-538" value="" style="endArrow=classic;html=1;rounded=0;entryX=-0.014;entryY=0.558;entryDx=0;entryDy=0;entryPerimeter=0;" parent="1" target="zMXqPVA5cicqRbTmdhPu-506" edge="1">
          <mxGeometry width="50" height="50" relative="1" as="geometry">
            <mxPoint x="1550" y="1290" as="sourcePoint" />
            <mxPoint x="1460" y="1480" as="targetPoint" />
            <Array as="points">
              <mxPoint x="1550" y="1521" />
            </Array>
          </mxGeometry>
        </mxCell>
        <mxCell id="zMXqPVA5cicqRbTmdhPu-539" value="" style="endArrow=classic;html=1;rounded=0;entryX=-0.121;entryY=0.582;entryDx=0;entryDy=0;entryPerimeter=0;" parent="1" target="zMXqPVA5cicqRbTmdhPu-483" edge="1">
          <mxGeometry width="50" height="50" relative="1" as="geometry">
            <mxPoint x="1320" y="1552.0000000000005" as="sourcePoint" />
            <mxPoint x="1310" y="1610" as="targetPoint" />
          </mxGeometry>
        </mxCell>
        <mxCell id="zMXqPVA5cicqRbTmdhPu-540" value="" style="endArrow=classic;html=1;rounded=0;entryX=0;entryY=0.5;entryDx=0;entryDy=0;entryPerimeter=0;" parent="1" target="zMXqPVA5cicqRbTmdhPu-482" edge="1">
          <mxGeometry width="50" height="50" relative="1" as="geometry">
            <mxPoint x="1330" y="1580" as="sourcePoint" />
            <mxPoint x="1230" y="1620" as="targetPoint" />
          </mxGeometry>
        </mxCell>
        <mxCell id="zMXqPVA5cicqRbTmdhPu-541" value="" style="endArrow=classic;html=1;rounded=0;exitX=1;exitY=0.75;exitDx=0;exitDy=0;" parent="1" source="zMXqPVA5cicqRbTmdhPu-462" edge="1">
          <mxGeometry width="50" height="50" relative="1" as="geometry">
            <mxPoint x="2340" y="1830" as="sourcePoint" />
            <mxPoint x="2390" y="1755" as="targetPoint" />
          </mxGeometry>
        </mxCell>
        <mxCell id="zMXqPVA5cicqRbTmdhPu-542" value="" style="endArrow=classic;html=1;rounded=0;exitX=1.001;exitY=0.816;exitDx=0;exitDy=0;exitPerimeter=0;" parent="1" source="zMXqPVA5cicqRbTmdhPu-462" edge="1">
          <mxGeometry width="50" height="50" relative="1" as="geometry">
            <mxPoint x="2128" y="1789.41" as="sourcePoint" />
            <mxPoint x="2388" y="1780" as="targetPoint" />
          </mxGeometry>
        </mxCell>
        <mxCell id="zMXqPVA5cicqRbTmdhPu-543" value="" style="endArrow=classic;html=1;rounded=0;exitX=1.004;exitY=0.918;exitDx=0;exitDy=0;exitPerimeter=0;entryX=0.175;entryY=0.75;entryDx=0;entryDy=0;entryPerimeter=0;" parent="1" source="zMXqPVA5cicqRbTmdhPu-462" target="zMXqPVA5cicqRbTmdhPu-470" edge="1">
          <mxGeometry width="50" height="50" relative="1" as="geometry">
            <mxPoint x="2130" y="1829.76" as="sourcePoint" />
            <mxPoint x="2790" y="1540" as="targetPoint" />
            <Array as="points">
              <mxPoint x="2820" y="1819" />
            </Array>
          </mxGeometry>
        </mxCell>
        <mxCell id="zMXqPVA5cicqRbTmdhPu-544" value="" style="endArrow=classic;html=1;rounded=0;exitX=1;exitY=0.75;exitDx=0;exitDy=0;" parent="1" edge="1">
          <mxGeometry width="50" height="50" relative="1" as="geometry">
            <mxPoint x="2128" y="1729.7600000000002" as="sourcePoint" />
            <mxPoint x="2388" y="1729.7600000000002" as="targetPoint" />
          </mxGeometry>
        </mxCell>
        <mxCell id="zMXqPVA5cicqRbTmdhPu-545" value="" style="endArrow=classic;html=1;rounded=0;exitX=0.988;exitY=0.673;exitDx=0;exitDy=0;exitPerimeter=0;entryX=-0.021;entryY=0.627;entryDx=0;entryDy=0;entryPerimeter=0;" parent="1" source="zMXqPVA5cicqRbTmdhPu-509" target="zMXqPVA5cicqRbTmdhPu-454" edge="1">
          <mxGeometry width="50" height="50" relative="1" as="geometry">
            <mxPoint x="2450" y="1670" as="sourcePoint" />
            <mxPoint x="2500" y="1620" as="targetPoint" />
            <Array as="points">
              <mxPoint x="2430" y="1800" />
              <mxPoint x="2430" y="2040" />
              <mxPoint x="1610" y="2040" />
              <mxPoint x="1610" y="1183" />
            </Array>
          </mxGeometry>
        </mxCell>
        <mxCell id="zMXqPVA5cicqRbTmdhPu-546" value="" style="endArrow=classic;html=1;rounded=0;exitX=0.999;exitY=0.137;exitDx=0;exitDy=0;exitPerimeter=0;entryX=-0.012;entryY=0.419;entryDx=0;entryDy=0;entryPerimeter=0;" parent="1" source="zMXqPVA5cicqRbTmdhPu-462" target="zMXqPVA5cicqRbTmdhPu-444" edge="1">
          <mxGeometry width="50" height="50" relative="1" as="geometry">
            <mxPoint x="2500" y="1520" as="sourcePoint" />
            <mxPoint x="2630" y="1610" as="targetPoint" />
            <Array as="points">
              <mxPoint x="2310" y="1522" />
              <mxPoint x="2310" y="2000" />
              <mxPoint x="1510" y="2000" />
              <mxPoint x="1510" y="1114" />
            </Array>
          </mxGeometry>
        </mxCell>
        <mxCell id="zMXqPVA5cicqRbTmdhPu-547" value="" style="endArrow=classic;html=1;rounded=0;exitX=1.017;exitY=0.5;exitDx=0;exitDy=0;exitPerimeter=0;entryX=0;entryY=0.5;entryDx=0;entryDy=0;strokeWidth=2;" parent="1" source="zMXqPVA5cicqRbTmdhPu-527" target="zMXqPVA5cicqRbTmdhPu-507" edge="1">
          <mxGeometry width="50" height="50" relative="1" as="geometry">
            <mxPoint x="2230" y="1640" as="sourcePoint" />
            <mxPoint x="950" y="1020" as="targetPoint" />
            <Array as="points">
              <mxPoint x="2240" y="1610" />
              <mxPoint x="2240" y="1920" />
              <mxPoint x="950" y="1920" />
              <mxPoint x="950" y="1020" />
              <mxPoint x="890" y="1020" />
            </Array>
          </mxGeometry>
        </mxCell>
        <mxCell id="zMXqPVA5cicqRbTmdhPu-548" value="" style="endArrow=classic;html=1;rounded=0;exitX=1.064;exitY=0.561;exitDx=0;exitDy=0;exitPerimeter=0;entryX=-0.044;entryY=0.572;entryDx=0;entryDy=0;entryPerimeter=0;" parent="1" source="zMXqPVA5cicqRbTmdhPu-463" target="zMXqPVA5cicqRbTmdhPu-451" edge="1">
          <mxGeometry width="50" height="50" relative="1" as="geometry">
            <mxPoint x="2190" y="1510" as="sourcePoint" />
            <mxPoint x="2240" y="1460" as="targetPoint" />
            <Array as="points">
              <mxPoint x="2170" y="1491" />
              <mxPoint x="2170" y="1380" />
              <mxPoint x="1760" y="1380" />
              <mxPoint x="1760" y="1091" />
            </Array>
          </mxGeometry>
        </mxCell>
        <mxCell id="zMXqPVA5cicqRbTmdhPu-549" value="" style="endArrow=classic;html=1;rounded=0;exitX=1.001;exitY=0.972;exitDx=0;exitDy=0;exitPerimeter=0;entryX=0.75;entryY=1;entryDx=0;entryDy=0;" parent="1" source="zMXqPVA5cicqRbTmdhPu-462" edge="1">
          <mxGeometry width="50" height="50" relative="1" as="geometry">
            <mxPoint x="2120" y="1910" as="sourcePoint" />
            <mxPoint x="1190" y="404.9999999999998" as="targetPoint" />
            <Array as="points">
              <mxPoint x="2200" y="1839" />
              <mxPoint x="2200" y="1900" />
              <mxPoint x="680" y="1910" />
              <mxPoint x="670" y="400" />
            </Array>
          </mxGeometry>
        </mxCell>
        <mxCell id="zMXqPVA5cicqRbTmdhPu-550" value="" style="endArrow=classic;html=1;rounded=0;strokeWidth=3;entryX=0.75;entryY=1;entryDx=0;entryDy=0;" parent="1" target="zMXqPVA5cicqRbTmdhPu-551" edge="1">
          <mxGeometry width="50" height="50" relative="1" as="geometry">
            <mxPoint x="2130" y="1560" as="sourcePoint" />
            <mxPoint x="1380" y="1080" as="targetPoint" />
            <Array as="points">
              <mxPoint x="2400" y="1559" />
              <mxPoint x="2400" y="2120" />
              <mxPoint x="1190" y="2120" />
              <mxPoint x="1190" y="1090" />
            </Array>
          </mxGeometry>
        </mxCell>
        <mxCell id="zMXqPVA5cicqRbTmdhPu-551" value="0&lt;br&gt;MUX&lt;br&gt;1" style="shape=trapezoid;perimeter=trapezoidPerimeter;whiteSpace=wrap;html=1;fixedSize=1;direction=south;" parent="1" vertex="1">
          <mxGeometry x="1390" y="1040" width="60" height="70" as="geometry" />
        </mxCell>
        <mxCell id="zMXqPVA5cicqRbTmdhPu-553" value="" style="endArrow=classic;html=1;rounded=0;strokeWidth=3;exitX=0.5;exitY=0;exitDx=0;exitDy=0;entryX=-0.003;entryY=0.628;entryDx=0;entryDy=0;entryPerimeter=0;" parent="1" source="zMXqPVA5cicqRbTmdhPu-551" target="zMXqPVA5cicqRbTmdhPu-446" edge="1">
          <mxGeometry width="50" height="50" relative="1" as="geometry">
            <mxPoint x="1540" y="1110" as="sourcePoint" />
            <mxPoint x="1590" y="1060" as="targetPoint" />
            <Array as="points">
              <mxPoint x="1640" y="1075" />
              <mxPoint x="1640" y="1053" />
            </Array>
          </mxGeometry>
        </mxCell>
        <mxCell id="zMXqPVA5cicqRbTmdhPu-554" value="" style="endArrow=classic;html=1;rounded=0;strokeWidth=3;entryX=1;entryY=0.5;entryDx=0;entryDy=0;" parent="1" target="zMXqPVA5cicqRbTmdhPu-551" edge="1">
          <mxGeometry width="50" height="50" relative="1" as="geometry">
            <mxPoint x="1420" y="1220" as="sourcePoint" />
            <mxPoint x="1400" y="1260" as="targetPoint" />
          </mxGeometry>
        </mxCell>
        <mxCell id="zMXqPVA5cicqRbTmdhPu-555" value="cache_offset_select" style="text;html=1;align=center;verticalAlign=middle;resizable=0;points=[];autosize=1;strokeColor=none;fillColor=none;" parent="1" vertex="1">
          <mxGeometry x="1360" y="1220" width="120" height="20" as="geometry" />
        </mxCell>
        <mxCell id="zMXqPVA5cicqRbTmdhPu-556" value="0&lt;br&gt;mux&lt;br&gt;1" style="shape=trapezoid;perimeter=trapezoidPerimeter;whiteSpace=wrap;html=1;fixedSize=1;direction=south;" parent="1" vertex="1">
          <mxGeometry x="2340" y="970" width="60" height="80" as="geometry" />
        </mxCell>
        <mxCell id="zMXqPVA5cicqRbTmdhPu-557" value="" style="endArrow=classic;html=1;rounded=0;strokeWidth=3;entryX=0.75;entryY=1;entryDx=0;entryDy=0;" parent="1" target="zMXqPVA5cicqRbTmdhPu-556" edge="1">
          <mxGeometry width="50" height="50" relative="1" as="geometry">
            <mxPoint x="2250" y="1030" as="sourcePoint" />
            <mxPoint x="2310" y="1020" as="targetPoint" />
          </mxGeometry>
        </mxCell>
        <mxCell id="zMXqPVA5cicqRbTmdhPu-558" value="" style="endArrow=classic;html=1;rounded=0;strokeWidth=3;exitX=1.007;exitY=0.707;exitDx=0;exitDy=0;exitPerimeter=0;entryX=0.842;entryY=1;entryDx=0;entryDy=0;entryPerimeter=0;" parent="1" source="zMXqPVA5cicqRbTmdhPu-522" target="zMXqPVA5cicqRbTmdhPu-559" edge="1">
          <mxGeometry width="50" height="50" relative="1" as="geometry">
            <mxPoint x="2270" y="1410" as="sourcePoint" />
            <mxPoint x="2300" y="1050" as="targetPoint" />
            <Array as="points">
              <mxPoint x="2300" y="1644" />
            </Array>
          </mxGeometry>
        </mxCell>
        <mxCell id="zMXqPVA5cicqRbTmdhPu-559" value="{address[15:3], mem_offset[2:0]}" style="text;html=1;align=center;verticalAlign=middle;resizable=0;points=[];autosize=1;strokeColor=none;fillColor=none;" parent="1" vertex="1">
          <mxGeometry x="2140" y="1010" width="190" height="20" as="geometry" />
        </mxCell>
        <mxCell id="zMXqPVA5cicqRbTmdhPu-560" value="" style="endArrow=classic;html=1;rounded=0;strokeWidth=3;exitX=0.5;exitY=0;exitDx=0;exitDy=0;entryX=0;entryY=0.5;entryDx=0;entryDy=0;entryPerimeter=0;" parent="1" source="zMXqPVA5cicqRbTmdhPu-556" target="zMXqPVA5cicqRbTmdhPu-433" edge="1">
          <mxGeometry width="50" height="50" relative="1" as="geometry">
            <mxPoint x="2480" y="990" as="sourcePoint" />
            <mxPoint x="2530" y="940" as="targetPoint" />
            <Array as="points">
              <mxPoint x="2430" y="1010" />
              <mxPoint x="2430" y="970" />
            </Array>
          </mxGeometry>
        </mxCell>
        <mxCell id="zMXqPVA5cicqRbTmdhPu-561" value="" style="endArrow=classic;html=1;rounded=0;strokeWidth=1;entryX=1;entryY=0.5;entryDx=0;entryDy=0;" parent="1" target="zMXqPVA5cicqRbTmdhPu-556" edge="1">
          <mxGeometry width="50" height="50" relative="1" as="geometry">
            <mxPoint x="2370" y="1110" as="sourcePoint" />
            <mxPoint x="2430" y="1060" as="targetPoint" />
          </mxGeometry>
        </mxCell>
        <mxCell id="zMXqPVA5cicqRbTmdhPu-562" value="mem_offset_select" style="text;html=1;align=center;verticalAlign=middle;resizable=0;points=[];autosize=1;strokeColor=none;fillColor=none;" parent="1" vertex="1">
          <mxGeometry x="2311" y="1110" width="120" height="20" as="geometry" />
        </mxCell>
        <mxCell id="zMXqPVA5cicqRbTmdhPu-563" value="" style="endArrow=classic;html=1;rounded=0;strokeWidth=1;exitX=1;exitY=0.5;exitDx=0;exitDy=0;exitPerimeter=0;" parent="1" source="zMXqPVA5cicqRbTmdhPu-470" edge="1">
          <mxGeometry width="50" height="50" relative="1" as="geometry">
            <mxPoint x="3030" y="2060" as="sourcePoint" />
            <mxPoint x="2840" y="2080" as="targetPoint" />
          </mxGeometry>
        </mxCell>
        <mxCell id="zMXqPVA5cicqRbTmdhPu-564" value="err" style="text;html=1;align=center;verticalAlign=middle;resizable=0;points=[];autosize=1;strokeColor=none;fillColor=none;" parent="1" vertex="1">
          <mxGeometry x="2865" y="2060" width="30" height="20" as="geometry" />
        </mxCell>
        <mxCell id="zMXqPVA5cicqRbTmdhPu-565" value="cache_rd_offset[2:0]" style="text;html=1;align=center;verticalAlign=middle;resizable=0;points=[];autosize=1;strokeColor=none;fillColor=none;" parent="1" vertex="1">
          <mxGeometry x="1290" y="1110" width="120" height="20" as="geometry" />
        </mxCell>
        <mxCell id="zMXqPVA5cicqRbTmdhPu-566" value="&lt;span style=&quot;text-align: left&quot;&gt;cache_offset_select&lt;/span&gt;" style="text;html=1;align=center;verticalAlign=middle;resizable=0;points=[];autosize=1;strokeColor=none;fillColor=none;" parent="1" vertex="1">
          <mxGeometry x="1824" y="1828" width="120" height="20" as="geometry" />
        </mxCell>
        <mxCell id="zMXqPVA5cicqRbTmdhPu-567" value="&lt;span style=&quot;text-align: left&quot;&gt;mem_offset_select&lt;/span&gt;" style="text;html=1;align=center;verticalAlign=middle;resizable=0;points=[];autosize=1;strokeColor=none;fillColor=none;" parent="1" vertex="1">
          <mxGeometry x="1944" y="1828" width="120" height="20" as="geometry" />
        </mxCell>
        <mxCell id="zMXqPVA5cicqRbTmdhPu-568" value="" style="endArrow=classic;html=1;rounded=0;strokeWidth=2;exitX=0.204;exitY=1.001;exitDx=0;exitDy=0;exitPerimeter=0;" parent="1" source="zMXqPVA5cicqRbTmdhPu-462" edge="1">
          <mxGeometry width="50" height="50" relative="1" as="geometry">
            <mxPoint x="1890" y="1910" as="sourcePoint" />
            <mxPoint x="1883" y="1880" as="targetPoint" />
          </mxGeometry>
        </mxCell>
        <mxCell id="zMXqPVA5cicqRbTmdhPu-569" value="" style="endArrow=classic;html=1;rounded=0;strokeWidth=2;exitX=0.613;exitY=1.004;exitDx=0;exitDy=0;exitPerimeter=0;" parent="1" source="zMXqPVA5cicqRbTmdhPu-462" edge="1">
          <mxGeometry width="50" height="50" relative="1" as="geometry">
            <mxPoint x="2010" y="1930" as="sourcePoint" />
            <mxPoint x="2010" y="1880" as="targetPoint" />
          </mxGeometry>
        </mxCell>
        <mxCell id="zMXqPVA5cicqRbTmdhPu-570" value="Halt" style="text;html=1;align=center;verticalAlign=middle;resizable=0;points=[];autosize=1;strokeColor=none;fillColor=none;fontSize=10;fontColor=#000000;" parent="1" vertex="1">
          <mxGeometry x="1350" y="1395" width="30" height="20" as="geometry" />
        </mxCell>
        <mxCell id="zMXqPVA5cicqRbTmdhPu-571" value="" style="endArrow=classic;html=1;rounded=0;strokeColor=#000000;strokeWidth=3;exitX=0.994;exitY=0.5;exitDx=0;exitDy=0;exitPerimeter=0;entryX=0.75;entryY=1;entryDx=0;entryDy=0;" parent="1" source="zMXqPVA5cicqRbTmdhPu-449" target="zMXqPVA5cicqRbTmdhPu-584" edge="1">
          <mxGeometry width="50" height="50" relative="1" as="geometry">
            <mxPoint x="2140" y="1150" as="sourcePoint" />
            <mxPoint x="2230" y="920" as="targetPoint" />
            <Array as="points">
              <mxPoint x="2130" y="1100" />
              <mxPoint x="2130" y="920" />
              <mxPoint x="2130" y="640" />
            </Array>
          </mxGeometry>
        </mxCell>
        <mxCell id="zMXqPVA5cicqRbTmdhPu-572" value="" style="endArrow=classic;html=1;rounded=0;strokeColor=#000000;strokeWidth=3;" parent="1" edge="1">
          <mxGeometry width="50" height="50" relative="1" as="geometry">
            <mxPoint x="1430" y="1010" as="sourcePoint" />
            <mxPoint x="2230" y="900" as="targetPoint" />
            <Array as="points">
              <mxPoint x="1430" y="900" />
            </Array>
          </mxGeometry>
        </mxCell>
        <mxCell id="zMXqPVA5cicqRbTmdhPu-573" value="0&lt;br&gt;mux&lt;br&gt;1" style="shape=trapezoid;perimeter=trapezoidPerimeter;whiteSpace=wrap;html=1;fixedSize=1;direction=south;" parent="1" vertex="1">
          <mxGeometry x="2231" y="874.61" width="60" height="70" as="geometry" />
        </mxCell>
        <mxCell id="zMXqPVA5cicqRbTmdhPu-574" value="" style="endArrow=classic;html=1;rounded=0;strokeColor=#000000;strokeWidth=3;" parent="1" target="zMXqPVA5cicqRbTmdhPu-573" edge="1">
          <mxGeometry width="50" height="50" relative="1" as="geometry">
            <mxPoint x="2260" y="980" as="sourcePoint" />
            <mxPoint x="2290" y="940" as="targetPoint" />
          </mxGeometry>
        </mxCell>
        <mxCell id="zMXqPVA5cicqRbTmdhPu-575" value="tag_select" style="text;html=1;align=center;verticalAlign=middle;resizable=0;points=[];autosize=1;strokeColor=none;fillColor=none;" parent="1" vertex="1">
          <mxGeometry x="2260" y="950" width="70" height="20" as="geometry" />
        </mxCell>
        <mxCell id="zMXqPVA5cicqRbTmdhPu-576" value="" style="endArrow=classic;html=1;rounded=0;strokeColor=#000000;strokeWidth=3;exitX=0.5;exitY=0;exitDx=0;exitDy=0;" parent="1" source="zMXqPVA5cicqRbTmdhPu-573" edge="1">
          <mxGeometry width="50" height="50" relative="1" as="geometry">
            <mxPoint x="2320" y="930" as="sourcePoint" />
            <mxPoint x="2430" y="970" as="targetPoint" />
            <Array as="points">
              <mxPoint x="2430" y="910" />
            </Array>
          </mxGeometry>
        </mxCell>
        <mxCell id="zMXqPVA5cicqRbTmdhPu-577" value="tag_select" style="text;html=1;align=center;verticalAlign=middle;resizable=0;points=[];autosize=1;strokeColor=none;fillColor=none;" parent="1" vertex="1">
          <mxGeometry x="1824" y="1790" width="70" height="20" as="geometry" />
        </mxCell>
        <mxCell id="zMXqPVA5cicqRbTmdhPu-578" value="" style="endArrow=classic;html=1;rounded=0;strokeColor=#000000;strokeWidth=3;exitX=-0.009;exitY=0.874;exitDx=0;exitDy=0;exitPerimeter=0;" parent="1" source="zMXqPVA5cicqRbTmdhPu-462" edge="1">
          <mxGeometry width="50" height="50" relative="1" as="geometry">
            <mxPoint x="1750" y="1840" as="sourcePoint" />
            <mxPoint x="1770" y="1802" as="targetPoint" />
          </mxGeometry>
        </mxCell>
        <mxCell id="zMXqPVA5cicqRbTmdhPu-579" value="cache_select" style="text;html=1;align=center;verticalAlign=middle;resizable=0;points=[];autosize=1;strokeColor=none;fillColor=none;" parent="1" vertex="1">
          <mxGeometry x="870" y="1000" width="90" height="20" as="geometry" />
        </mxCell>
        <mxCell id="zMXqPVA5cicqRbTmdhPu-580" value="1&lt;br&gt;&lt;br&gt;MUX&lt;br&gt;&lt;br&gt;0" style="shape=trapezoid;perimeter=trapezoidPerimeter;whiteSpace=wrap;html=1;fixedSize=1;direction=south;" parent="1" vertex="1">
          <mxGeometry x="2320" y="725" width="60" height="120" as="geometry" />
        </mxCell>
        <mxCell id="zMXqPVA5cicqRbTmdhPu-581" value="" style="endArrow=classic;html=1;rounded=0;strokeWidth=3;entryX=0;entryY=0.5;entryDx=0;entryDy=0;" parent="1" target="zMXqPVA5cicqRbTmdhPu-580" edge="1">
          <mxGeometry width="50" height="50" relative="1" as="geometry">
            <mxPoint x="2350" y="620" as="sourcePoint" />
            <mxPoint x="2380" y="570" as="targetPoint" />
          </mxGeometry>
        </mxCell>
        <mxCell id="zMXqPVA5cicqRbTmdhPu-583" value="two_way_select" style="text;html=1;align=center;verticalAlign=middle;resizable=0;points=[];autosize=1;strokeColor=none;fillColor=none;" parent="1" vertex="1">
          <mxGeometry x="2351" y="605" width="100" height="20" as="geometry" />
        </mxCell>
        <mxCell id="zMXqPVA5cicqRbTmdhPu-584" value="1&lt;br&gt;&lt;br&gt;MUX&lt;br&gt;&lt;br&gt;0" style="shape=trapezoid;perimeter=trapezoidPerimeter;whiteSpace=wrap;html=1;fixedSize=1;direction=south;" parent="1" vertex="1">
          <mxGeometry x="2150" y="555" width="40" height="115" as="geometry" />
        </mxCell>
        <mxCell id="zMXqPVA5cicqRbTmdhPu-585" value="" style="endArrow=classic;html=1;rounded=0;strokeWidth=3;exitX=0.5;exitY=0;exitDx=0;exitDy=0;" parent="1" source="zMXqPVA5cicqRbTmdhPu-584" edge="1">
          <mxGeometry width="50" height="50" relative="1" as="geometry">
            <mxPoint x="2210" y="620" as="sourcePoint" />
            <mxPoint x="2230" y="930" as="targetPoint" />
            <Array as="points">
              <mxPoint x="2210" y="613" />
              <mxPoint x="2210" y="930" />
            </Array>
          </mxGeometry>
        </mxCell>
        <mxCell id="zMXqPVA5cicqRbTmdhPu-586" value="" style="endArrow=classic;html=1;rounded=0;strokeWidth=3;entryX=0;entryY=0.5;entryDx=0;entryDy=0;" parent="1" edge="1">
          <mxGeometry width="50" height="50" relative="1" as="geometry">
            <mxPoint x="2169.29" y="477.5" as="sourcePoint" />
            <mxPoint x="2169.29" y="562.5" as="targetPoint" />
          </mxGeometry>
        </mxCell>
        <mxCell id="zMXqPVA5cicqRbTmdhPu-588" value="&lt;meta charset=&quot;utf-8&quot;&gt;&lt;span style=&quot;color: rgb(0, 0, 0); font-family: helvetica; font-size: 12px; font-style: normal; font-weight: 400; letter-spacing: normal; text-align: center; text-indent: 0px; text-transform: none; word-spacing: 0px; background-color: rgb(248, 249, 250); display: inline; float: none;&quot;&gt;two_way_select&lt;/span&gt;" style="text;whiteSpace=wrap;html=1;" parent="1" vertex="1">
          <mxGeometry x="2140" y="447.5" width="110" height="30" as="geometry" />
        </mxCell>
        <mxCell id="zMXqPVA5cicqRbTmdhPu-589" value="&lt;meta charset=&quot;utf-8&quot;&gt;&lt;span style=&quot;color: rgb(0, 0, 0); font-family: helvetica; font-size: 12px; font-style: normal; font-weight: 400; letter-spacing: normal; text-align: center; text-indent: 0px; text-transform: none; word-spacing: 0px; background-color: rgb(248, 249, 250); display: inline; float: none;&quot;&gt;two_way_select&lt;/span&gt;" style="text;whiteSpace=wrap;html=1;" parent="1" vertex="1">
          <mxGeometry x="1829" y="1750" width="110" height="30" as="geometry" />
        </mxCell>
        <mxCell id="zMXqPVA5cicqRbTmdhPu-590" value="" style="endArrow=classic;html=1;rounded=0;strokeWidth=3;exitX=0;exitY=0.777;exitDx=0;exitDy=0;exitPerimeter=0;" parent="1" source="zMXqPVA5cicqRbTmdhPu-462" edge="1">
          <mxGeometry width="50" height="50" relative="1" as="geometry">
            <mxPoint x="1730" y="1780" as="sourcePoint" />
            <mxPoint x="1770" y="1765" as="targetPoint" />
          </mxGeometry>
        </mxCell>
        <mxCell id="znvjFrMwsABYHBJ9YKuh-13" value="" style="edgeStyle=orthogonalEdgeStyle;rounded=0;orthogonalLoop=1;jettySize=auto;html=1;" edge="1" parent="1" source="znvjFrMwsABYHBJ9YKuh-1" target="znvjFrMwsABYHBJ9YKuh-3">
          <mxGeometry relative="1" as="geometry" />
        </mxCell>
        <mxCell id="znvjFrMwsABYHBJ9YKuh-1" value="1&lt;br&gt;&lt;br&gt;MUX&lt;br&gt;&lt;br&gt;0" style="shape=trapezoid;perimeter=trapezoidPerimeter;whiteSpace=wrap;html=1;fixedSize=1;direction=south;" vertex="1" parent="1">
          <mxGeometry x="2311" y="157.5" width="40" height="115" as="geometry" />
        </mxCell>
        <mxCell id="znvjFrMwsABYHBJ9YKuh-2" value="" style="endArrow=classic;html=1;rounded=0;strokeWidth=3;entryX=0;entryY=0.5;entryDx=0;entryDy=0;" edge="1" parent="1">
          <mxGeometry width="50" height="50" relative="1" as="geometry">
            <mxPoint x="2330" y="75" as="sourcePoint" />
            <mxPoint x="2330" y="160" as="targetPoint" />
          </mxGeometry>
        </mxCell>
        <mxCell id="znvjFrMwsABYHBJ9YKuh-3" value="&lt;meta charset=&quot;utf-8&quot;&gt;&lt;span style=&quot;color: rgb(0, 0, 0); font-family: helvetica; font-size: 12px; font-style: normal; font-weight: 400; letter-spacing: normal; text-align: center; text-indent: 0px; text-transform: none; word-spacing: 0px; background-color: rgb(248, 249, 250); display: inline; float: none;&quot;&gt;two_way_select&lt;/span&gt;" style="text;whiteSpace=wrap;html=1;" vertex="1" parent="1">
          <mxGeometry x="2295" y="45" width="110" height="30" as="geometry" />
        </mxCell>
        <mxCell id="znvjFrMwsABYHBJ9YKuh-4" value="1&lt;br&gt;&lt;br&gt;MUX&lt;br&gt;&lt;br&gt;0" style="shape=trapezoid;perimeter=trapezoidPerimeter;whiteSpace=wrap;html=1;fixedSize=1;direction=south;" vertex="1" parent="1">
          <mxGeometry x="2415" y="280" width="40" height="115" as="geometry" />
        </mxCell>
        <mxCell id="znvjFrMwsABYHBJ9YKuh-5" value="" style="endArrow=classic;html=1;rounded=0;strokeWidth=3;entryX=0;entryY=0.5;entryDx=0;entryDy=0;" edge="1" parent="1">
          <mxGeometry width="50" height="50" relative="1" as="geometry">
            <mxPoint x="2434.29" y="205" as="sourcePoint" />
            <mxPoint x="2434.29" y="290" as="targetPoint" />
          </mxGeometry>
        </mxCell>
        <mxCell id="znvjFrMwsABYHBJ9YKuh-6" value="&lt;meta charset=&quot;utf-8&quot;&gt;&lt;span style=&quot;color: rgb(0, 0, 0); font-family: helvetica; font-size: 12px; font-style: normal; font-weight: 400; letter-spacing: normal; text-align: center; text-indent: 0px; text-transform: none; word-spacing: 0px; background-color: rgb(248, 249, 250); display: inline; float: none;&quot;&gt;two_way_select&lt;/span&gt;" style="text;whiteSpace=wrap;html=1;" vertex="1" parent="1">
          <mxGeometry x="2405" y="140" width="110" height="30" as="geometry" />
        </mxCell>
        <mxCell id="znvjFrMwsABYHBJ9YKuh-7" value="1&lt;br&gt;&lt;br&gt;MUX&lt;br&gt;&lt;br&gt;0" style="shape=trapezoid;perimeter=trapezoidPerimeter;whiteSpace=wrap;html=1;fixedSize=1;direction=south;" vertex="1" parent="1">
          <mxGeometry x="2515" y="380" width="40" height="115" as="geometry" />
        </mxCell>
        <mxCell id="znvjFrMwsABYHBJ9YKuh-8" value="" style="endArrow=classic;html=1;rounded=0;strokeWidth=3;entryX=0;entryY=0.5;entryDx=0;entryDy=0;" edge="1" parent="1">
          <mxGeometry width="50" height="50" relative="1" as="geometry">
            <mxPoint x="2534.29" y="305" as="sourcePoint" />
            <mxPoint x="2534.29" y="390" as="targetPoint" />
          </mxGeometry>
        </mxCell>
        <mxCell id="znvjFrMwsABYHBJ9YKuh-9" value="&lt;meta charset=&quot;utf-8&quot;&gt;&lt;span style=&quot;color: rgb(0, 0, 0); font-family: helvetica; font-size: 12px; font-style: normal; font-weight: 400; letter-spacing: normal; text-align: center; text-indent: 0px; text-transform: none; word-spacing: 0px; background-color: rgb(248, 249, 250); display: inline; float: none;&quot;&gt;two_way_select&lt;/span&gt;" style="text;whiteSpace=wrap;html=1;" vertex="1" parent="1">
          <mxGeometry x="2490" y="285" width="110" height="30" as="geometry" />
        </mxCell>
        <mxCell id="znvjFrMwsABYHBJ9YKuh-10" value="1&lt;br&gt;&lt;br&gt;MUX&lt;br&gt;&lt;br&gt;0" style="shape=trapezoid;perimeter=trapezoidPerimeter;whiteSpace=wrap;html=1;fixedSize=1;direction=south;" vertex="1" parent="1">
          <mxGeometry x="2625" y="510" width="40" height="115" as="geometry" />
        </mxCell>
        <mxCell id="znvjFrMwsABYHBJ9YKuh-11" value="" style="endArrow=classic;html=1;rounded=0;strokeWidth=3;entryX=0;entryY=0.5;entryDx=0;entryDy=0;" edge="1" parent="1">
          <mxGeometry width="50" height="50" relative="1" as="geometry">
            <mxPoint x="2644.29" y="435" as="sourcePoint" />
            <mxPoint x="2644.29" y="520" as="targetPoint" />
          </mxGeometry>
        </mxCell>
        <mxCell id="znvjFrMwsABYHBJ9YKuh-12" value="&lt;meta charset=&quot;utf-8&quot;&gt;&lt;span style=&quot;color: rgb(0, 0, 0); font-family: helvetica; font-size: 12px; font-style: normal; font-weight: 400; letter-spacing: normal; text-align: center; text-indent: 0px; text-transform: none; word-spacing: 0px; background-color: rgb(248, 249, 250); display: inline; float: none;&quot;&gt;two_way_select&lt;/span&gt;" style="text;whiteSpace=wrap;html=1;" vertex="1" parent="1">
          <mxGeometry x="2615" y="405" width="110" height="30" as="geometry" />
        </mxCell>
        <mxCell id="znvjFrMwsABYHBJ9YKuh-14" value="" style="rounded=0;whiteSpace=wrap;html=1;" vertex="1" parent="1">
          <mxGeometry x="1180" y="332.5" width="120" height="145" as="geometry" />
        </mxCell>
        <mxCell id="znvjFrMwsABYHBJ9YKuh-16" value="" style="endArrow=classic;html=1;rounded=0;entryX=-0.006;entryY=0.57;entryDx=0;entryDy=0;entryPerimeter=0;" edge="1" parent="1" target="zMXqPVA5cicqRbTmdhPu-197">
          <mxGeometry width="50" height="50" relative="1" as="geometry">
            <mxPoint x="1300" y="365" as="sourcePoint" />
            <mxPoint x="1550" y="215" as="targetPoint" />
            <Array as="points">
              <mxPoint x="1400" y="365" />
              <mxPoint x="1400" y="215" />
            </Array>
          </mxGeometry>
        </mxCell>
        <mxCell id="znvjFrMwsABYHBJ9YKuh-17" value="" style="endArrow=classic;html=1;rounded=0;entryX=-0.089;entryY=0.557;entryDx=0;entryDy=0;entryPerimeter=0;" edge="1" parent="1" target="zMXqPVA5cicqRbTmdhPu-445">
          <mxGeometry width="50" height="50" relative="1" as="geometry">
            <mxPoint x="1300" y="445.0000000000002" as="sourcePoint" />
            <mxPoint x="1350" y="395" as="targetPoint" />
            <Array as="points">
              <mxPoint x="1440" y="445" />
              <mxPoint x="1440" y="971" />
            </Array>
          </mxGeometry>
        </mxCell>
        <mxCell id="znvjFrMwsABYHBJ9YKuh-18" value="&lt;meta charset=&quot;utf-8&quot;&gt;&lt;span style=&quot;color: rgb(0, 0, 0); font-family: helvetica; font-size: 12px; font-style: normal; font-weight: 400; letter-spacing: normal; text-align: center; text-indent: 0px; text-transform: none; word-spacing: 0px; background-color: rgb(248, 249, 250); display: inline; float: none;&quot;&gt;two_way_select&lt;/span&gt;" style="text;whiteSpace=wrap;html=1;" vertex="1" parent="1">
          <mxGeometry x="1190" y="395" width="110" height="40" as="geometry" />
        </mxCell>
        <mxCell id="znvjFrMwsABYHBJ9YKuh-19" value="&lt;meta charset=&quot;utf-8&quot;&gt;&lt;span style=&quot;color: rgb(0, 0, 0); font-family: helvetica; font-size: 12px; font-style: normal; font-weight: 400; letter-spacing: normal; text-align: center; text-indent: 0px; text-transform: none; word-spacing: 0px; background-color: rgb(248, 249, 250); display: inline; float: none;&quot;&gt;two_way_select&lt;/span&gt;" style="text;whiteSpace=wrap;html=1;" vertex="1" parent="1">
          <mxGeometry x="1310" y="470" width="110" height="40" as="geometry" />
        </mxCell>
        <mxCell id="znvjFrMwsABYHBJ9YKuh-20" value="~&lt;span style=&quot;color: rgb(0 , 0 , 0) ; font-family: &amp;#34;helvetica&amp;#34; ; font-size: 12px ; font-style: normal ; font-weight: 400 ; letter-spacing: normal ; text-align: center ; text-indent: 0px ; text-transform: none ; word-spacing: 0px ; background-color: rgb(248 , 249 , 250) ; display: inline ; float: none&quot;&gt;two_way_select&lt;/span&gt;" style="text;whiteSpace=wrap;html=1;" vertex="1" parent="1">
          <mxGeometry x="1310" y="332.5" width="110" height="40" as="geometry" />
        </mxCell>
        <mxCell id="znvjFrMwsABYHBJ9YKuh-22" value="" style="endArrow=classic;html=1;rounded=0;exitX=1;exitY=0.25;exitDx=0;exitDy=0;strokeWidth=2;" edge="1" parent="1" source="zMXqPVA5cicqRbTmdhPu-444">
          <mxGeometry width="50" height="50" relative="1" as="geometry">
            <mxPoint x="2240" y="1190" as="sourcePoint" />
            <mxPoint x="2310" y="240" as="targetPoint" />
            <Array as="points">
              <mxPoint x="2120" y="1040" />
              <mxPoint x="2120" y="240" />
            </Array>
          </mxGeometry>
        </mxCell>
        <mxCell id="znvjFrMwsABYHBJ9YKuh-23" value="" style="endArrow=classic;html=1;rounded=0;exitX=1.004;exitY=0.323;exitDx=0;exitDy=0;exitPerimeter=0;strokeWidth=2;" edge="1" parent="1" source="zMXqPVA5cicqRbTmdhPu-444">
          <mxGeometry width="50" height="50" relative="1" as="geometry">
            <mxPoint x="2240" y="1170" as="sourcePoint" />
            <mxPoint x="2410" y="357" as="targetPoint" />
            <Array as="points">
              <mxPoint x="2220" y="1072" />
              <mxPoint x="2220" y="357" />
            </Array>
          </mxGeometry>
        </mxCell>
        <mxCell id="znvjFrMwsABYHBJ9YKuh-24" value="" style="endArrow=classic;html=1;rounded=0;entryX=0.75;entryY=1;entryDx=0;entryDy=0;strokeWidth=2;" edge="1" parent="1" source="zMXqPVA5cicqRbTmdhPu-460" target="znvjFrMwsABYHBJ9YKuh-7">
          <mxGeometry width="50" height="50" relative="1" as="geometry">
            <mxPoint x="2240" y="1250" as="sourcePoint" />
            <mxPoint x="2470" y="460" as="targetPoint" />
            <Array as="points">
              <mxPoint x="2450" y="1160" />
              <mxPoint x="2450" y="466" />
            </Array>
          </mxGeometry>
        </mxCell>
        <mxCell id="znvjFrMwsABYHBJ9YKuh-25" value="" style="endArrow=classic;html=1;rounded=0;exitX=1;exitY=0.75;exitDx=0;exitDy=0;exitPerimeter=0;entryX=0.75;entryY=1;entryDx=0;entryDy=0;strokeWidth=2;" edge="1" parent="1" source="zMXqPVA5cicqRbTmdhPu-461" target="znvjFrMwsABYHBJ9YKuh-10">
          <mxGeometry width="50" height="50" relative="1" as="geometry">
            <mxPoint x="2240" y="1240" as="sourcePoint" />
            <mxPoint x="2290" y="1190" as="targetPoint" />
            <Array as="points">
              <mxPoint x="2480" y="1295" />
              <mxPoint x="2480" y="596" />
            </Array>
          </mxGeometry>
        </mxCell>
        <mxCell id="znvjFrMwsABYHBJ9YKuh-27" value="" style="endArrow=classic;html=1;rounded=0;strokeWidth=2;entryX=0.25;entryY=0.5;entryDx=0;entryDy=0;entryPerimeter=0;" edge="1" parent="1" target="zMXqPVA5cicqRbTmdhPu-470">
          <mxGeometry width="50" height="50" relative="1" as="geometry">
            <mxPoint x="2664.9999999999995" y="566.3400000000001" as="sourcePoint" />
            <mxPoint x="2880" y="564" as="targetPoint" />
            <Array as="points">
              <mxPoint x="2840" y="566" />
            </Array>
          </mxGeometry>
        </mxCell>
        <mxCell id="znvjFrMwsABYHBJ9YKuh-28" value="" style="endArrow=classic;html=1;rounded=0;strokeWidth=2;" edge="1" parent="1">
          <mxGeometry width="50" height="50" relative="1" as="geometry">
            <mxPoint x="2455" y="332.5000000000001" as="sourcePoint" />
            <mxPoint x="2670" y="330.15999999999974" as="targetPoint" />
          </mxGeometry>
        </mxCell>
        <mxCell id="znvjFrMwsABYHBJ9YKuh-29" value="" style="endArrow=classic;html=1;rounded=0;strokeWidth=2;entryX=-0.042;entryY=0.467;entryDx=0;entryDy=0;entryPerimeter=0;" edge="1" parent="1" target="zMXqPVA5cicqRbTmdhPu-485">
          <mxGeometry width="50" height="50" relative="1" as="geometry">
            <mxPoint x="2555" y="438.6700000000002" as="sourcePoint" />
            <mxPoint x="2770" y="436.3299999999998" as="targetPoint" />
            <Array as="points">
              <mxPoint x="3200" y="440" />
              <mxPoint x="3190" y="2160" />
              <mxPoint x="1580" y="2170" />
              <mxPoint x="1580" y="1609" />
            </Array>
          </mxGeometry>
        </mxCell>
        <mxCell id="znvjFrMwsABYHBJ9YKuh-30" value="" style="endArrow=classic;html=1;rounded=0;strokeWidth=2;" edge="1" parent="1">
          <mxGeometry width="50" height="50" relative="1" as="geometry">
            <mxPoint x="2351" y="216.17000000000002" as="sourcePoint" />
            <mxPoint x="2566" y="213.82999999999987" as="targetPoint" />
          </mxGeometry>
        </mxCell>
        <mxCell id="znvjFrMwsABYHBJ9YKuh-31" value="cache error" style="text;html=1;strokeColor=none;fillColor=none;align=center;verticalAlign=middle;whiteSpace=wrap;rounded=0;" vertex="1" parent="1">
          <mxGeometry x="2910" y="555" width="45" height="30" as="geometry" />
        </mxCell>
        <mxCell id="znvjFrMwsABYHBJ9YKuh-32" value="" style="endArrow=classic;html=1;rounded=0;strokeWidth=2;entryX=0.025;entryY=0.6;entryDx=0;entryDy=0;entryPerimeter=0;" edge="1" parent="1" target="zMXqPVA5cicqRbTmdhPu-479">
          <mxGeometry width="50" height="50" relative="1" as="geometry">
            <mxPoint x="2595" y="332.5000000000001" as="sourcePoint" />
            <mxPoint x="1858.3199999999997" y="1503.1699999999998" as="targetPoint" />
            <Array as="points">
              <mxPoint x="3250" y="330" />
              <mxPoint x="3230" y="2230" />
              <mxPoint x="1550" y="2230" />
              <mxPoint x="1550" y="1640" />
            </Array>
          </mxGeometry>
        </mxCell>
        <mxCell id="znvjFrMwsABYHBJ9YKuh-33" value="" style="endArrow=classic;html=1;rounded=0;strokeWidth=2;entryX=-0.157;entryY=0.46;entryDx=0;entryDy=0;entryPerimeter=0;" edge="1" parent="1" target="zMXqPVA5cicqRbTmdhPu-478">
          <mxGeometry width="50" height="50" relative="1" as="geometry">
            <mxPoint x="2555" y="211.25" as="sourcePoint" />
            <mxPoint x="1781" y="1520.75" as="targetPoint" />
            <Array as="points">
              <mxPoint x="3290" y="211" />
              <mxPoint x="3280" y="2290" />
              <mxPoint x="1520" y="2290" />
              <mxPoint x="1520" y="1699" />
            </Array>
          </mxGeometry>
        </mxCell>
      </root>
    </mxGraphModel>
  </diagram>
</mxfile>
